G75*
%MOIN*%
%OFA0B0*%
%FSLAX25Y25*%
%IPPOS*%
%LPD*%
%AMOC8*
5,1,8,0,0,1.08239X$1,22.5*
%
%ADD10R,0.04737X0.05131*%
%ADD11R,0.05131X0.04737*%
%ADD12R,0.06312X0.07099*%
%ADD13R,0.06312X0.12611*%
%ADD14R,0.04343X0.03950*%
%ADD15R,0.06800X0.04000*%
%ADD16R,0.08300X0.13100*%
%ADD17C,0.13800*%
%ADD18C,0.04737*%
%ADD19R,0.04737X0.08674*%
%ADD20C,0.02572*%
%ADD21R,0.06040X0.13760*%
%ADD22C,0.07887*%
%ADD23R,0.13280X0.04737*%
%ADD24R,0.05524X0.06312*%
%ADD25R,0.06800X0.03800*%
%ADD26R,0.06587X0.06800*%
%ADD27R,0.03950X0.05524*%
%ADD28C,0.02602*%
%ADD29C,0.08800*%
%ADD30R,0.03556X0.03556*%
%ADD31R,0.05800X0.03000*%
%ADD32R,0.03000X0.05800*%
%ADD33R,0.05524X0.02965*%
%ADD34R,0.05524X0.03162*%
%ADD35R,0.05131X0.05524*%
%ADD36R,0.07690X0.02375*%
%ADD37R,0.06548X0.08674*%
%ADD38R,0.10643X0.06410*%
%ADD39C,0.04737*%
%ADD40C,0.05131*%
%ADD41C,0.03556*%
%ADD42C,0.00400*%
%ADD43C,0.03398*%
%ADD44R,0.03300X0.05800*%
%ADD45C,0.00500*%
%ADD46R,0.08674X0.05524*%
%ADD47R,0.06115X0.03162*%
%ADD48C,0.05000*%
%ADD49C,0.06706*%
D10*
X0053750Y0130904D03*
X0053750Y0137596D03*
X0178750Y0123317D03*
X0178750Y0116624D03*
X0178750Y0102096D03*
X0178750Y0095404D03*
X0335750Y0130904D03*
X0335750Y0137596D03*
X0460750Y0123317D03*
X0460750Y0116624D03*
X0460750Y0102096D03*
X0460750Y0095404D03*
X0460750Y0307404D03*
X0460750Y0314096D03*
X0460750Y0328624D03*
X0460750Y0335317D03*
X0335750Y0342904D03*
X0335750Y0349596D03*
X0178750Y0335317D03*
X0178750Y0328624D03*
X0178750Y0314096D03*
X0178750Y0307404D03*
X0053750Y0342904D03*
X0053750Y0349596D03*
D11*
X0052096Y0358250D03*
X0045404Y0358250D03*
X0075404Y0349750D03*
X0075404Y0343750D03*
X0082096Y0343750D03*
X0082096Y0349750D03*
X0082096Y0370750D03*
X0075404Y0370750D03*
X0095404Y0393250D03*
X0102096Y0393250D03*
X0102096Y0400750D03*
X0095404Y0400750D03*
X0095404Y0420750D03*
X0102096Y0420750D03*
X0145404Y0393750D03*
X0152096Y0393750D03*
X0152096Y0378250D03*
X0145404Y0378250D03*
X0145404Y0363250D03*
X0152096Y0363250D03*
X0152096Y0356250D03*
X0145404Y0356250D03*
X0145404Y0348250D03*
X0152096Y0348250D03*
X0122096Y0320750D03*
X0115404Y0320750D03*
X0094596Y0318750D03*
X0087904Y0318750D03*
X0087904Y0308750D03*
X0094596Y0308750D03*
X0095404Y0208750D03*
X0102096Y0208750D03*
X0102096Y0188750D03*
X0095404Y0188750D03*
X0095404Y0181250D03*
X0102096Y0181250D03*
X0082096Y0158750D03*
X0075404Y0158750D03*
X0052096Y0146250D03*
X0045404Y0146250D03*
X0075404Y0137750D03*
X0075404Y0131750D03*
X0082096Y0131750D03*
X0082096Y0137750D03*
X0087904Y0106750D03*
X0094596Y0106750D03*
X0094596Y0096750D03*
X0087904Y0096750D03*
X0115404Y0108750D03*
X0122096Y0108750D03*
X0145404Y0136250D03*
X0152096Y0136250D03*
X0152096Y0144250D03*
X0145404Y0144250D03*
X0145404Y0151250D03*
X0152096Y0151250D03*
X0152096Y0166250D03*
X0145404Y0166250D03*
X0145404Y0181750D03*
X0152096Y0181750D03*
X0255404Y0103750D03*
X0262096Y0103750D03*
X0269404Y0103750D03*
X0276096Y0103750D03*
X0276096Y0083750D03*
X0269404Y0083750D03*
X0262096Y0083750D03*
X0255404Y0083750D03*
X0327404Y0146250D03*
X0334096Y0146250D03*
X0357404Y0137750D03*
X0357404Y0131750D03*
X0364096Y0131750D03*
X0364096Y0137750D03*
X0364096Y0158750D03*
X0357404Y0158750D03*
X0377404Y0181250D03*
X0384096Y0181250D03*
X0384096Y0188750D03*
X0377404Y0188750D03*
X0377404Y0208750D03*
X0384096Y0208750D03*
X0427404Y0181750D03*
X0434096Y0181750D03*
X0434096Y0166250D03*
X0427404Y0166250D03*
X0427404Y0151250D03*
X0434096Y0151250D03*
X0434096Y0144250D03*
X0427404Y0144250D03*
X0427404Y0136250D03*
X0434096Y0136250D03*
X0404096Y0108750D03*
X0397404Y0108750D03*
X0376596Y0106750D03*
X0369904Y0106750D03*
X0369904Y0096750D03*
X0376596Y0096750D03*
X0272096Y0161750D03*
X0265404Y0161750D03*
X0262096Y0295750D03*
X0255404Y0295750D03*
X0269404Y0295750D03*
X0276096Y0295750D03*
X0276096Y0315750D03*
X0269404Y0315750D03*
X0262096Y0315750D03*
X0255404Y0315750D03*
X0327404Y0358250D03*
X0334096Y0358250D03*
X0357404Y0349750D03*
X0357404Y0343750D03*
X0364096Y0343750D03*
X0364096Y0349750D03*
X0364096Y0370750D03*
X0357404Y0370750D03*
X0377404Y0393250D03*
X0384096Y0393250D03*
X0384096Y0400750D03*
X0377404Y0400750D03*
X0377404Y0420750D03*
X0384096Y0420750D03*
X0427404Y0393750D03*
X0434096Y0393750D03*
X0434096Y0378250D03*
X0427404Y0378250D03*
X0427404Y0363250D03*
X0434096Y0363250D03*
X0434096Y0356250D03*
X0427404Y0356250D03*
X0427404Y0348250D03*
X0434096Y0348250D03*
X0404096Y0320750D03*
X0397404Y0320750D03*
X0376596Y0318750D03*
X0369904Y0318750D03*
X0369904Y0308750D03*
X0376596Y0308750D03*
X0272096Y0373750D03*
X0265404Y0373750D03*
X0537404Y0315750D03*
X0544096Y0315750D03*
X0551404Y0315750D03*
X0558096Y0315750D03*
X0558096Y0295750D03*
X0551404Y0295750D03*
X0544096Y0295750D03*
X0537404Y0295750D03*
X0547404Y0373750D03*
X0554096Y0373750D03*
X0554096Y0161750D03*
X0547404Y0161750D03*
X0544096Y0103750D03*
X0537404Y0103750D03*
X0551404Y0103750D03*
X0558096Y0103750D03*
X0558096Y0083750D03*
X0551404Y0083750D03*
X0544096Y0083750D03*
X0537404Y0083750D03*
D12*
X0406262Y0081750D03*
X0395238Y0081750D03*
X0395238Y0116750D03*
X0406262Y0116750D03*
X0368262Y0146250D03*
X0357238Y0146250D03*
X0395238Y0293750D03*
X0406262Y0293750D03*
X0406262Y0328750D03*
X0395238Y0328750D03*
X0368262Y0358250D03*
X0357238Y0358250D03*
X0124262Y0328750D03*
X0113238Y0328750D03*
X0086262Y0358250D03*
X0075238Y0358250D03*
X0113238Y0293750D03*
X0124262Y0293750D03*
X0086262Y0146250D03*
X0075238Y0146250D03*
X0113238Y0116750D03*
X0124262Y0116750D03*
X0124262Y0081750D03*
X0113238Y0081750D03*
D13*
X0123750Y0061199D03*
X0123750Y0042301D03*
X0405750Y0042301D03*
X0405750Y0061199D03*
X0405750Y0254301D03*
X0405750Y0273199D03*
X0123750Y0273199D03*
X0123750Y0254301D03*
D14*
X0068081Y0346750D03*
X0059813Y0350490D03*
X0059813Y0343010D03*
X0059813Y0138490D03*
X0059813Y0131010D03*
X0068081Y0134750D03*
X0341813Y0131010D03*
X0341813Y0138490D03*
X0350081Y0134750D03*
X0341813Y0343010D03*
X0341813Y0350490D03*
X0350081Y0346750D03*
D15*
X0362640Y0334760D03*
X0362640Y0325750D03*
X0362640Y0316810D03*
X0362640Y0122760D03*
X0362640Y0113750D03*
X0362640Y0104810D03*
X0080640Y0104810D03*
X0080640Y0113750D03*
X0080640Y0122760D03*
X0080640Y0316810D03*
X0080640Y0325750D03*
X0080640Y0334760D03*
D16*
X0057250Y0325750D03*
X0339250Y0325750D03*
X0339250Y0113750D03*
X0057250Y0113750D03*
D17*
X0093750Y0038750D03*
X0298750Y0058750D03*
X0375750Y0038750D03*
X0298750Y0168750D03*
X0380750Y0228750D03*
X0375750Y0250750D03*
X0298750Y0270750D03*
X0298750Y0380750D03*
X0380750Y0440750D03*
X0580750Y0380750D03*
X0580750Y0270750D03*
X0580750Y0168750D03*
X0580750Y0058750D03*
X0098750Y0228750D03*
X0093750Y0250750D03*
X0098750Y0440750D03*
D18*
X0083750Y0445750D03*
X0075750Y0459000D03*
X0298750Y0285750D03*
X0365750Y0233750D03*
X0298750Y0073750D03*
X0083750Y0233750D03*
X0365750Y0445750D03*
X0553750Y0459000D03*
X0580750Y0285750D03*
X0580750Y0073750D03*
D19*
X0570750Y0045246D03*
X0560750Y0045246D03*
X0550750Y0045246D03*
X0540750Y0045246D03*
X0530750Y0045246D03*
X0520750Y0045246D03*
X0520750Y0032254D03*
X0530750Y0032254D03*
X0540750Y0032254D03*
X0550750Y0032254D03*
X0560750Y0032254D03*
X0570750Y0032254D03*
X0500750Y0032254D03*
X0490750Y0032254D03*
X0480750Y0032254D03*
X0470750Y0032254D03*
X0460750Y0032254D03*
X0450750Y0032254D03*
X0440750Y0032254D03*
X0430750Y0032254D03*
X0430750Y0045246D03*
X0440750Y0045246D03*
X0450750Y0045246D03*
X0460750Y0045246D03*
X0470750Y0045246D03*
X0480750Y0045246D03*
X0490750Y0045246D03*
X0500750Y0045246D03*
X0288750Y0045246D03*
X0278750Y0045246D03*
X0268750Y0045246D03*
X0258750Y0045246D03*
X0248750Y0045246D03*
X0238750Y0045246D03*
X0238750Y0032254D03*
X0248750Y0032254D03*
X0258750Y0032254D03*
X0268750Y0032254D03*
X0278750Y0032254D03*
X0288750Y0032254D03*
X0218750Y0032254D03*
X0208750Y0032254D03*
X0198750Y0032254D03*
X0188750Y0032254D03*
X0178750Y0032254D03*
X0168750Y0032254D03*
X0158750Y0032254D03*
X0148750Y0032254D03*
X0148750Y0045246D03*
X0158750Y0045246D03*
X0168750Y0045246D03*
X0178750Y0045246D03*
X0188750Y0045246D03*
X0198750Y0045246D03*
X0208750Y0045246D03*
X0218750Y0045246D03*
X0218750Y0222254D03*
X0228750Y0222254D03*
X0238750Y0222254D03*
X0248750Y0222254D03*
X0258750Y0222254D03*
X0268750Y0222254D03*
X0278750Y0222254D03*
X0288750Y0222254D03*
X0288750Y0235246D03*
X0278750Y0235246D03*
X0278750Y0244254D03*
X0288750Y0244254D03*
X0288750Y0257246D03*
X0278750Y0257246D03*
X0268750Y0257246D03*
X0258750Y0257246D03*
X0248750Y0257246D03*
X0238750Y0257246D03*
X0238750Y0244254D03*
X0238750Y0235246D03*
X0228750Y0235246D03*
X0218750Y0235246D03*
X0218750Y0244254D03*
X0208750Y0244254D03*
X0198750Y0244254D03*
X0202750Y0235246D03*
X0192750Y0235246D03*
X0188750Y0244254D03*
X0178750Y0244254D03*
X0182750Y0235246D03*
X0172750Y0235246D03*
X0168750Y0244254D03*
X0158750Y0244254D03*
X0148750Y0244254D03*
X0152750Y0235246D03*
X0142750Y0235246D03*
X0132750Y0235246D03*
X0122750Y0235246D03*
X0112750Y0235246D03*
X0112750Y0222254D03*
X0122750Y0222254D03*
X0132750Y0222254D03*
X0142750Y0222254D03*
X0152750Y0222254D03*
X0162750Y0222254D03*
X0172750Y0222254D03*
X0182750Y0222254D03*
X0192750Y0222254D03*
X0202750Y0222254D03*
X0162750Y0235246D03*
X0158750Y0257246D03*
X0148750Y0257246D03*
X0168750Y0257246D03*
X0178750Y0257246D03*
X0188750Y0257246D03*
X0198750Y0257246D03*
X0208750Y0257246D03*
X0218750Y0257246D03*
X0248750Y0244254D03*
X0258750Y0244254D03*
X0268750Y0244254D03*
X0268750Y0235246D03*
X0258750Y0235246D03*
X0248750Y0235246D03*
X0394750Y0235246D03*
X0404750Y0235246D03*
X0414750Y0235246D03*
X0424750Y0235246D03*
X0434750Y0235246D03*
X0444750Y0235246D03*
X0440750Y0244254D03*
X0450750Y0244254D03*
X0454750Y0235246D03*
X0464750Y0235246D03*
X0460750Y0244254D03*
X0470750Y0244254D03*
X0480750Y0244254D03*
X0484750Y0235246D03*
X0474750Y0235246D03*
X0490750Y0244254D03*
X0500750Y0244254D03*
X0500750Y0235246D03*
X0510750Y0235246D03*
X0520750Y0235246D03*
X0530750Y0235246D03*
X0530750Y0244254D03*
X0520750Y0244254D03*
X0520750Y0257246D03*
X0530750Y0257246D03*
X0540750Y0257246D03*
X0550750Y0257246D03*
X0560750Y0257246D03*
X0570750Y0257246D03*
X0570750Y0244254D03*
X0560750Y0244254D03*
X0560750Y0235246D03*
X0570750Y0235246D03*
X0570750Y0222254D03*
X0560750Y0222254D03*
X0550750Y0222254D03*
X0540750Y0222254D03*
X0530750Y0222254D03*
X0520750Y0222254D03*
X0510750Y0222254D03*
X0500750Y0222254D03*
X0484750Y0222254D03*
X0474750Y0222254D03*
X0464750Y0222254D03*
X0454750Y0222254D03*
X0444750Y0222254D03*
X0434750Y0222254D03*
X0424750Y0222254D03*
X0414750Y0222254D03*
X0404750Y0222254D03*
X0394750Y0222254D03*
X0430750Y0244254D03*
X0430750Y0257246D03*
X0440750Y0257246D03*
X0450750Y0257246D03*
X0460750Y0257246D03*
X0470750Y0257246D03*
X0480750Y0257246D03*
X0490750Y0257246D03*
X0500750Y0257246D03*
X0540750Y0244254D03*
X0550750Y0244254D03*
X0550750Y0235246D03*
X0540750Y0235246D03*
X0540750Y0434254D03*
X0550750Y0434254D03*
X0560750Y0434254D03*
X0570750Y0434254D03*
X0570750Y0447246D03*
X0560750Y0447246D03*
X0550750Y0447246D03*
X0540750Y0447246D03*
X0530750Y0447246D03*
X0520750Y0447246D03*
X0510750Y0447246D03*
X0500750Y0447246D03*
X0484750Y0447246D03*
X0474750Y0447246D03*
X0464750Y0447246D03*
X0454750Y0447246D03*
X0444750Y0447246D03*
X0434750Y0447246D03*
X0424750Y0447246D03*
X0414750Y0447246D03*
X0404750Y0447246D03*
X0394750Y0447246D03*
X0394750Y0434254D03*
X0404750Y0434254D03*
X0414750Y0434254D03*
X0424750Y0434254D03*
X0434750Y0434254D03*
X0444750Y0434254D03*
X0454750Y0434254D03*
X0464750Y0434254D03*
X0474750Y0434254D03*
X0484750Y0434254D03*
X0500750Y0434254D03*
X0510750Y0434254D03*
X0520750Y0434254D03*
X0530750Y0434254D03*
X0288750Y0434254D03*
X0278750Y0434254D03*
X0268750Y0434254D03*
X0258750Y0434254D03*
X0248750Y0434254D03*
X0238750Y0434254D03*
X0228750Y0434254D03*
X0218750Y0434254D03*
X0202750Y0434254D03*
X0192750Y0434254D03*
X0182750Y0434254D03*
X0172750Y0434254D03*
X0162750Y0434254D03*
X0152750Y0434254D03*
X0142750Y0434254D03*
X0132750Y0434254D03*
X0122750Y0434254D03*
X0112750Y0434254D03*
X0112750Y0447246D03*
X0122750Y0447246D03*
X0132750Y0447246D03*
X0142750Y0447246D03*
X0152750Y0447246D03*
X0162750Y0447246D03*
X0172750Y0447246D03*
X0182750Y0447246D03*
X0192750Y0447246D03*
X0202750Y0447246D03*
X0218750Y0447246D03*
X0228750Y0447246D03*
X0238750Y0447246D03*
X0248750Y0447246D03*
X0258750Y0447246D03*
X0268750Y0447246D03*
X0278750Y0447246D03*
X0288750Y0447246D03*
D20*
X0236614Y0333474D02*
X0230886Y0333474D01*
X0230886Y0328750D02*
X0236614Y0328750D01*
X0236614Y0324026D02*
X0230886Y0324026D01*
X0230886Y0121474D02*
X0236614Y0121474D01*
X0236614Y0116750D02*
X0230886Y0116750D01*
X0230886Y0112026D02*
X0236614Y0112026D01*
X0512886Y0112026D02*
X0518614Y0112026D01*
X0518614Y0116750D02*
X0512886Y0116750D01*
X0512886Y0121474D02*
X0518614Y0121474D01*
X0518614Y0324026D02*
X0512886Y0324026D01*
X0512886Y0328750D02*
X0518614Y0328750D01*
X0518614Y0333474D02*
X0512886Y0333474D01*
D21*
X0515760Y0328740D03*
X0233760Y0328740D03*
X0233760Y0116740D03*
X0515760Y0116740D03*
D22*
X0575750Y0133750D03*
X0575750Y0143750D03*
X0575750Y0345750D03*
X0575750Y0355750D03*
X0293750Y0355750D03*
X0293750Y0345750D03*
X0293750Y0143750D03*
X0293750Y0133750D03*
D23*
X0283750Y0128750D03*
X0283750Y0138750D03*
X0283750Y0148750D03*
X0303750Y0148750D03*
X0303750Y0138750D03*
X0303750Y0128750D03*
X0565750Y0128750D03*
X0565750Y0138750D03*
X0565750Y0148750D03*
X0585750Y0148750D03*
X0585750Y0138750D03*
X0585750Y0128750D03*
X0585750Y0340750D03*
X0585750Y0350750D03*
X0585750Y0360750D03*
X0565750Y0360750D03*
X0565750Y0350750D03*
X0565750Y0340750D03*
X0303750Y0340750D03*
X0303750Y0350750D03*
X0303750Y0360750D03*
X0283750Y0360750D03*
X0283750Y0350750D03*
X0283750Y0340750D03*
D24*
X0274656Y0381250D03*
X0262844Y0381250D03*
X0154656Y0385750D03*
X0142844Y0385750D03*
X0142844Y0370750D03*
X0154656Y0370750D03*
X0154656Y0401250D03*
X0142844Y0401250D03*
X0424844Y0401250D03*
X0436656Y0401250D03*
X0436656Y0385750D03*
X0424844Y0385750D03*
X0424844Y0370750D03*
X0436656Y0370750D03*
X0544844Y0381250D03*
X0556656Y0381250D03*
X0436656Y0189250D03*
X0424844Y0189250D03*
X0424844Y0173750D03*
X0436656Y0173750D03*
X0436656Y0158750D03*
X0424844Y0158750D03*
X0544844Y0169250D03*
X0556656Y0169250D03*
X0274656Y0169250D03*
X0262844Y0169250D03*
X0154656Y0173750D03*
X0142844Y0173750D03*
X0142844Y0158750D03*
X0154656Y0158750D03*
X0154656Y0189250D03*
X0142844Y0189250D03*
D25*
X0069750Y0216250D03*
X0069750Y0231250D03*
X0047750Y0231250D03*
X0047750Y0216250D03*
X0329750Y0216250D03*
X0329750Y0231250D03*
X0351750Y0231250D03*
X0351750Y0216250D03*
X0351750Y0428250D03*
X0351750Y0443250D03*
X0329750Y0443250D03*
X0329750Y0428250D03*
X0069750Y0428250D03*
X0069750Y0443250D03*
X0047750Y0443250D03*
X0047750Y0428250D03*
D26*
X0101750Y0282715D03*
X0101750Y0264785D03*
X0101750Y0070715D03*
X0101750Y0052785D03*
X0383750Y0052785D03*
X0383750Y0070715D03*
X0383750Y0264785D03*
X0383750Y0282715D03*
D27*
X0349293Y0358250D03*
X0342207Y0358250D03*
X0067293Y0358250D03*
X0060207Y0358250D03*
X0060207Y0146250D03*
X0067293Y0146250D03*
X0342207Y0146250D03*
X0349293Y0146250D03*
D28*
X0049786Y0036486D02*
X0043714Y0036486D01*
X0043714Y0044132D01*
X0049786Y0044132D01*
X0049786Y0036486D01*
X0049786Y0039087D02*
X0043714Y0039087D01*
X0043714Y0041688D02*
X0049786Y0041688D01*
X0067730Y0036486D02*
X0073802Y0036486D01*
X0067730Y0036486D02*
X0067730Y0044132D01*
X0073802Y0044132D01*
X0073802Y0036486D01*
X0073802Y0039087D02*
X0067730Y0039087D01*
X0067730Y0041688D02*
X0073802Y0041688D01*
X0073802Y0081368D02*
X0067730Y0081368D01*
X0067730Y0089014D01*
X0073802Y0089014D01*
X0073802Y0081368D01*
X0073802Y0083969D02*
X0067730Y0083969D01*
X0067730Y0086570D02*
X0073802Y0086570D01*
X0049786Y0081368D02*
X0043714Y0081368D01*
X0043714Y0089014D01*
X0049786Y0089014D01*
X0049786Y0081368D01*
X0049786Y0083969D02*
X0043714Y0083969D01*
X0043714Y0086570D02*
X0049786Y0086570D01*
X0049786Y0248486D02*
X0043714Y0248486D01*
X0043714Y0256132D01*
X0049786Y0256132D01*
X0049786Y0248486D01*
X0049786Y0251087D02*
X0043714Y0251087D01*
X0043714Y0253688D02*
X0049786Y0253688D01*
X0067730Y0248486D02*
X0073802Y0248486D01*
X0067730Y0248486D02*
X0067730Y0256132D01*
X0073802Y0256132D01*
X0073802Y0248486D01*
X0073802Y0251087D02*
X0067730Y0251087D01*
X0067730Y0253688D02*
X0073802Y0253688D01*
X0073802Y0293368D02*
X0067730Y0293368D01*
X0067730Y0301014D01*
X0073802Y0301014D01*
X0073802Y0293368D01*
X0073802Y0295969D02*
X0067730Y0295969D01*
X0067730Y0298570D02*
X0073802Y0298570D01*
X0049786Y0293368D02*
X0043714Y0293368D01*
X0043714Y0301014D01*
X0049786Y0301014D01*
X0049786Y0293368D01*
X0049786Y0295969D02*
X0043714Y0295969D01*
X0043714Y0298570D02*
X0049786Y0298570D01*
X0325714Y0293368D02*
X0331786Y0293368D01*
X0325714Y0293368D02*
X0325714Y0301014D01*
X0331786Y0301014D01*
X0331786Y0293368D01*
X0331786Y0295969D02*
X0325714Y0295969D01*
X0325714Y0298570D02*
X0331786Y0298570D01*
X0349730Y0293368D02*
X0355802Y0293368D01*
X0349730Y0293368D02*
X0349730Y0301014D01*
X0355802Y0301014D01*
X0355802Y0293368D01*
X0355802Y0295969D02*
X0349730Y0295969D01*
X0349730Y0298570D02*
X0355802Y0298570D01*
X0355802Y0248486D02*
X0349730Y0248486D01*
X0349730Y0256132D01*
X0355802Y0256132D01*
X0355802Y0248486D01*
X0355802Y0251087D02*
X0349730Y0251087D01*
X0349730Y0253688D02*
X0355802Y0253688D01*
X0331786Y0248486D02*
X0325714Y0248486D01*
X0325714Y0256132D01*
X0331786Y0256132D01*
X0331786Y0248486D01*
X0331786Y0251087D02*
X0325714Y0251087D01*
X0325714Y0253688D02*
X0331786Y0253688D01*
X0331786Y0081368D02*
X0325714Y0081368D01*
X0325714Y0089014D01*
X0331786Y0089014D01*
X0331786Y0081368D01*
X0331786Y0083969D02*
X0325714Y0083969D01*
X0325714Y0086570D02*
X0331786Y0086570D01*
X0349730Y0081368D02*
X0355802Y0081368D01*
X0349730Y0081368D02*
X0349730Y0089014D01*
X0355802Y0089014D01*
X0355802Y0081368D01*
X0355802Y0083969D02*
X0349730Y0083969D01*
X0349730Y0086570D02*
X0355802Y0086570D01*
X0355802Y0036486D02*
X0349730Y0036486D01*
X0349730Y0044132D01*
X0355802Y0044132D01*
X0355802Y0036486D01*
X0355802Y0039087D02*
X0349730Y0039087D01*
X0349730Y0041688D02*
X0355802Y0041688D01*
X0331786Y0036486D02*
X0325714Y0036486D01*
X0325714Y0044132D01*
X0331786Y0044132D01*
X0331786Y0036486D01*
X0331786Y0039087D02*
X0325714Y0039087D01*
X0325714Y0041688D02*
X0331786Y0041688D01*
D29*
X0328750Y0062750D03*
X0346750Y0062750D03*
X0064750Y0062750D03*
X0046750Y0062750D03*
X0046750Y0274750D03*
X0064750Y0274750D03*
X0328750Y0274750D03*
X0346750Y0274750D03*
D30*
X0276392Y0303191D03*
X0276392Y0308309D03*
X0269108Y0305750D03*
X0262392Y0305750D03*
X0255108Y0308309D03*
X0255108Y0303191D03*
X0537108Y0303191D03*
X0537108Y0308309D03*
X0544392Y0305750D03*
X0551108Y0305750D03*
X0558392Y0308309D03*
X0558392Y0303191D03*
X0558392Y0096309D03*
X0558392Y0091191D03*
X0551108Y0093750D03*
X0544392Y0093750D03*
X0537108Y0091191D03*
X0537108Y0096309D03*
X0276392Y0096309D03*
X0276392Y0091191D03*
X0269108Y0093750D03*
X0262392Y0093750D03*
X0255108Y0091191D03*
X0255108Y0096309D03*
D31*
X0220650Y0097726D03*
X0220650Y0100876D03*
X0220650Y0104026D03*
X0220650Y0107175D03*
X0220650Y0110325D03*
X0220650Y0113474D03*
X0220650Y0116624D03*
X0220650Y0119774D03*
X0186850Y0119774D03*
X0186850Y0116624D03*
X0186850Y0113474D03*
X0186850Y0110325D03*
X0186850Y0107175D03*
X0186850Y0104026D03*
X0186850Y0100876D03*
X0186850Y0097726D03*
X0468850Y0097726D03*
X0468850Y0100876D03*
X0468850Y0104026D03*
X0468850Y0107175D03*
X0468850Y0110325D03*
X0468850Y0113474D03*
X0468850Y0116624D03*
X0468850Y0119774D03*
X0502650Y0119774D03*
X0502650Y0116624D03*
X0502650Y0113474D03*
X0502650Y0110325D03*
X0502650Y0107175D03*
X0502650Y0104026D03*
X0502650Y0100876D03*
X0502650Y0097726D03*
X0502650Y0309726D03*
X0502650Y0312876D03*
X0502650Y0316026D03*
X0502650Y0319175D03*
X0502650Y0322325D03*
X0502650Y0325474D03*
X0502650Y0328624D03*
X0502650Y0331774D03*
X0468850Y0331774D03*
X0468850Y0328624D03*
X0468850Y0325474D03*
X0468850Y0322325D03*
X0468850Y0319175D03*
X0468850Y0316026D03*
X0468850Y0312876D03*
X0468850Y0309726D03*
X0220650Y0309726D03*
X0220650Y0312876D03*
X0220650Y0316026D03*
X0220650Y0319175D03*
X0220650Y0322325D03*
X0220650Y0325474D03*
X0220650Y0328624D03*
X0220650Y0331774D03*
X0186850Y0331774D03*
X0186850Y0328624D03*
X0186850Y0325474D03*
X0186850Y0322325D03*
X0186850Y0319175D03*
X0186850Y0316026D03*
X0186850Y0312876D03*
X0186850Y0309726D03*
D32*
X0192726Y0303850D03*
X0195876Y0303850D03*
X0199026Y0303850D03*
X0202175Y0303850D03*
X0205325Y0303850D03*
X0208474Y0303850D03*
X0211624Y0303850D03*
X0214774Y0303850D03*
X0214774Y0337650D03*
X0211624Y0337650D03*
X0208474Y0337650D03*
X0205325Y0337650D03*
X0202175Y0337650D03*
X0199026Y0337650D03*
X0195876Y0337650D03*
X0192726Y0337650D03*
X0474726Y0337650D03*
X0477876Y0337650D03*
X0481026Y0337650D03*
X0484175Y0337650D03*
X0487325Y0337650D03*
X0490474Y0337650D03*
X0493624Y0337650D03*
X0496774Y0337650D03*
X0496774Y0303850D03*
X0493624Y0303850D03*
X0490474Y0303850D03*
X0487325Y0303850D03*
X0484175Y0303850D03*
X0481026Y0303850D03*
X0477876Y0303850D03*
X0474726Y0303850D03*
X0474726Y0125650D03*
X0477876Y0125650D03*
X0481026Y0125650D03*
X0484175Y0125650D03*
X0487325Y0125650D03*
X0490474Y0125650D03*
X0493624Y0125650D03*
X0496774Y0125650D03*
X0496774Y0091850D03*
X0493624Y0091850D03*
X0490474Y0091850D03*
X0487325Y0091850D03*
X0484175Y0091850D03*
X0481026Y0091850D03*
X0477876Y0091850D03*
X0474726Y0091850D03*
X0214774Y0091850D03*
X0211624Y0091850D03*
X0208474Y0091850D03*
X0205325Y0091850D03*
X0202175Y0091850D03*
X0199026Y0091850D03*
X0195876Y0091850D03*
X0192726Y0091850D03*
X0192726Y0125650D03*
X0195876Y0125650D03*
X0199026Y0125650D03*
X0202175Y0125650D03*
X0205325Y0125650D03*
X0208474Y0125650D03*
X0211624Y0125650D03*
X0214774Y0125650D03*
D33*
X0123869Y0102490D03*
X0123869Y0095010D03*
X0113631Y0095010D03*
X0113631Y0098750D03*
X0113631Y0102490D03*
X0395631Y0102490D03*
X0395631Y0098750D03*
X0395631Y0095010D03*
X0405869Y0095010D03*
X0405869Y0102490D03*
X0405869Y0307010D03*
X0405869Y0314490D03*
X0395631Y0314490D03*
X0395631Y0310750D03*
X0395631Y0307010D03*
X0123869Y0307010D03*
X0123869Y0314490D03*
X0113631Y0314490D03*
X0113631Y0310750D03*
X0113631Y0307010D03*
D34*
X0089774Y0378250D03*
X0089774Y0383250D03*
X0089774Y0388250D03*
X0089774Y0393250D03*
X0089774Y0398250D03*
X0089774Y0403250D03*
X0089774Y0408250D03*
X0089774Y0413250D03*
X0067726Y0413250D03*
X0067726Y0408250D03*
X0067726Y0403250D03*
X0067726Y0398250D03*
X0067726Y0393250D03*
X0067726Y0388250D03*
X0067726Y0383250D03*
X0067726Y0378250D03*
X0067726Y0201250D03*
X0067726Y0196250D03*
X0067726Y0191250D03*
X0067726Y0186250D03*
X0067726Y0181250D03*
X0067726Y0176250D03*
X0067726Y0171250D03*
X0067726Y0166250D03*
X0089774Y0166250D03*
X0089774Y0171250D03*
X0089774Y0176250D03*
X0089774Y0181250D03*
X0089774Y0186250D03*
X0089774Y0191250D03*
X0089774Y0196250D03*
X0089774Y0201250D03*
X0349726Y0201250D03*
X0349726Y0196250D03*
X0349726Y0191250D03*
X0349726Y0186250D03*
X0349726Y0181250D03*
X0349726Y0176250D03*
X0349726Y0171250D03*
X0349726Y0166250D03*
X0371774Y0166250D03*
X0371774Y0171250D03*
X0371774Y0176250D03*
X0371774Y0181250D03*
X0371774Y0186250D03*
X0371774Y0191250D03*
X0371774Y0196250D03*
X0371774Y0201250D03*
X0371774Y0378250D03*
X0371774Y0383250D03*
X0371774Y0388250D03*
X0371774Y0393250D03*
X0371774Y0398250D03*
X0371774Y0403250D03*
X0371774Y0408250D03*
X0371774Y0413250D03*
X0349726Y0413250D03*
X0349726Y0408250D03*
X0349726Y0403250D03*
X0349726Y0398250D03*
X0349726Y0393250D03*
X0349726Y0388250D03*
X0349726Y0383250D03*
X0349726Y0378250D03*
D35*
X0377305Y0406124D03*
X0384195Y0406124D03*
X0384195Y0415376D03*
X0377305Y0415376D03*
X0102195Y0415376D03*
X0095305Y0415376D03*
X0095305Y0406124D03*
X0102195Y0406124D03*
X0102195Y0203376D03*
X0095305Y0203376D03*
X0095305Y0194124D03*
X0102195Y0194124D03*
X0377305Y0194124D03*
X0384195Y0194124D03*
X0384195Y0203376D03*
X0377305Y0203376D03*
D36*
X0335990Y0188744D03*
X0335990Y0186185D03*
X0335990Y0183626D03*
X0335990Y0181067D03*
X0335990Y0178508D03*
X0053990Y0178508D03*
X0053990Y0181067D03*
X0053990Y0183626D03*
X0053990Y0186185D03*
X0053990Y0188744D03*
X0053990Y0390508D03*
X0053990Y0393067D03*
X0053990Y0395626D03*
X0053990Y0398185D03*
X0053990Y0400744D03*
X0335990Y0400744D03*
X0335990Y0398185D03*
X0335990Y0395626D03*
X0335990Y0393067D03*
X0335990Y0390508D03*
D37*
X0337073Y0384604D03*
X0337073Y0406748D03*
X0055073Y0406748D03*
X0055073Y0384604D03*
X0055073Y0194748D03*
X0055073Y0172604D03*
X0337073Y0172604D03*
X0337073Y0194748D03*
D38*
X0325439Y0187603D03*
X0325428Y0179828D03*
X0043428Y0179828D03*
X0043439Y0187603D03*
X0043428Y0391828D03*
X0043439Y0399603D03*
X0325439Y0399603D03*
X0325428Y0391828D03*
D39*
X0336434Y0385957D02*
X0337616Y0385957D01*
X0336434Y0385957D02*
X0336434Y0385957D01*
X0337616Y0385957D01*
X0337616Y0385957D01*
X0337656Y0405073D02*
X0336474Y0405073D01*
X0336474Y0405073D01*
X0337656Y0405073D01*
X0337656Y0405073D01*
X0055656Y0405073D02*
X0054474Y0405073D01*
X0054474Y0405073D01*
X0055656Y0405073D01*
X0055656Y0405073D01*
X0055616Y0385957D02*
X0054434Y0385957D01*
X0054434Y0385957D01*
X0055616Y0385957D01*
X0055616Y0385957D01*
X0055656Y0193073D02*
X0054474Y0193073D01*
X0054474Y0193073D01*
X0055656Y0193073D01*
X0055656Y0193073D01*
X0055616Y0173957D02*
X0054434Y0173957D01*
X0054434Y0173957D01*
X0055616Y0173957D01*
X0055616Y0173957D01*
X0336434Y0173957D02*
X0337616Y0173957D01*
X0336434Y0173957D02*
X0336434Y0173957D01*
X0337616Y0173957D01*
X0337616Y0173957D01*
X0337656Y0193073D02*
X0336474Y0193073D01*
X0336474Y0193073D01*
X0337656Y0193073D01*
X0337656Y0193073D01*
D40*
X0327035Y0194217D02*
X0325459Y0194217D01*
X0325459Y0194217D01*
X0327035Y0194217D01*
X0327035Y0194217D01*
X0327042Y0173114D02*
X0325466Y0173114D01*
X0325466Y0173114D01*
X0327042Y0173114D01*
X0327042Y0173114D01*
X0045042Y0173114D02*
X0043466Y0173114D01*
X0043466Y0173114D01*
X0045042Y0173114D01*
X0045042Y0173114D01*
X0045035Y0194217D02*
X0043459Y0194217D01*
X0043459Y0194217D01*
X0045035Y0194217D01*
X0045035Y0194217D01*
X0045042Y0385114D02*
X0043466Y0385114D01*
X0043466Y0385114D01*
X0045042Y0385114D01*
X0045042Y0385114D01*
X0045035Y0406217D02*
X0043459Y0406217D01*
X0043459Y0406217D01*
X0045035Y0406217D01*
X0045035Y0406217D01*
X0325459Y0406217D02*
X0327035Y0406217D01*
X0325459Y0406217D02*
X0325459Y0406217D01*
X0327035Y0406217D01*
X0327035Y0406217D01*
X0327042Y0385114D02*
X0325466Y0385114D01*
X0325466Y0385114D01*
X0327042Y0385114D01*
X0327042Y0385114D01*
D41*
X0326285Y0384851D03*
X0325620Y0384855D03*
X0324860Y0384859D03*
X0324198Y0384859D03*
X0324198Y0406355D03*
X0324848Y0406355D03*
X0325632Y0406351D03*
X0326285Y0406351D03*
X0044285Y0406351D03*
X0043632Y0406351D03*
X0042848Y0406355D03*
X0042198Y0406355D03*
X0042198Y0384859D03*
X0042860Y0384859D03*
X0043620Y0384855D03*
X0044285Y0384851D03*
X0044285Y0194351D03*
X0043632Y0194351D03*
X0042848Y0194355D03*
X0042198Y0194355D03*
X0042198Y0172859D03*
X0042860Y0172859D03*
X0043620Y0172855D03*
X0044285Y0172851D03*
X0324198Y0172859D03*
X0324860Y0172859D03*
X0325620Y0172855D03*
X0326285Y0172851D03*
X0326285Y0194351D03*
X0325632Y0194351D03*
X0324848Y0194355D03*
X0324198Y0194355D03*
D42*
X0321830Y0194531D02*
X0333630Y0194531D01*
X0333630Y0194929D02*
X0321830Y0194929D01*
X0321830Y0195328D02*
X0333630Y0195328D01*
X0333630Y0195726D02*
X0321847Y0195726D01*
X0321858Y0195866D02*
X0321962Y0196197D01*
X0322137Y0196497D01*
X0322374Y0196751D01*
X0322662Y0196945D01*
X0322986Y0197070D01*
X0323330Y0197120D01*
X0330286Y0197100D01*
X0330286Y0199000D01*
X0333630Y0199020D01*
X0333630Y0191120D01*
X0330230Y0191120D01*
X0323830Y0191220D01*
X0323330Y0191220D01*
X0323006Y0191245D01*
X0322696Y0191342D01*
X0322415Y0191505D01*
X0322178Y0191727D01*
X0321995Y0191996D01*
X0321877Y0192299D01*
X0321830Y0192620D01*
X0321830Y0195520D01*
X0321858Y0195866D01*
X0321939Y0196125D02*
X0333630Y0196125D01*
X0333630Y0196523D02*
X0322161Y0196523D01*
X0322628Y0196922D02*
X0333630Y0196922D01*
X0333630Y0197320D02*
X0330286Y0197320D01*
X0330286Y0197719D02*
X0333630Y0197719D01*
X0333630Y0198117D02*
X0330286Y0198117D01*
X0330286Y0198516D02*
X0333630Y0198516D01*
X0333630Y0198914D02*
X0330286Y0198914D01*
X0333630Y0194132D02*
X0321830Y0194132D01*
X0321830Y0193734D02*
X0333630Y0193734D01*
X0333630Y0193335D02*
X0321830Y0193335D01*
X0321830Y0192937D02*
X0333630Y0192937D01*
X0333630Y0192538D02*
X0321842Y0192538D01*
X0321939Y0192140D02*
X0333630Y0192140D01*
X0333630Y0191741D02*
X0322168Y0191741D01*
X0322695Y0191343D02*
X0333630Y0191343D01*
X0333630Y0176220D02*
X0323230Y0176120D01*
X0322909Y0176073D01*
X0322606Y0175955D01*
X0322337Y0175772D01*
X0322115Y0175535D01*
X0321952Y0175254D01*
X0321855Y0174944D01*
X0321830Y0174620D01*
X0321830Y0171620D01*
X0321880Y0171276D01*
X0322005Y0170952D01*
X0322199Y0170665D01*
X0322453Y0170427D01*
X0322753Y0170252D01*
X0323084Y0170148D01*
X0323430Y0170120D01*
X0330325Y0170120D01*
X0330325Y0168120D01*
X0333630Y0168120D01*
X0333630Y0176220D01*
X0333630Y0176199D02*
X0331465Y0176199D01*
X0333630Y0175801D02*
X0322378Y0175801D01*
X0322038Y0175402D02*
X0333630Y0175402D01*
X0333630Y0175004D02*
X0321874Y0175004D01*
X0321830Y0174605D02*
X0333630Y0174605D01*
X0333630Y0174207D02*
X0321830Y0174207D01*
X0321830Y0173808D02*
X0333630Y0173808D01*
X0333630Y0173410D02*
X0321830Y0173410D01*
X0321830Y0173011D02*
X0333630Y0173011D01*
X0333630Y0172613D02*
X0321830Y0172613D01*
X0321830Y0172214D02*
X0333630Y0172214D01*
X0333630Y0171816D02*
X0321830Y0171816D01*
X0321860Y0171417D02*
X0333630Y0171417D01*
X0333630Y0171019D02*
X0321980Y0171019D01*
X0322247Y0170620D02*
X0333630Y0170620D01*
X0333630Y0170222D02*
X0322849Y0170222D01*
X0330325Y0169823D02*
X0333630Y0169823D01*
X0333630Y0169424D02*
X0330325Y0169424D01*
X0330325Y0169026D02*
X0333630Y0169026D01*
X0333630Y0168627D02*
X0330325Y0168627D01*
X0330325Y0168229D02*
X0333630Y0168229D01*
X0051630Y0168229D02*
X0048325Y0168229D01*
X0048325Y0168120D02*
X0048325Y0170120D01*
X0041430Y0170120D01*
X0041084Y0170148D01*
X0040753Y0170252D01*
X0040453Y0170427D01*
X0040199Y0170665D01*
X0040005Y0170952D01*
X0039880Y0171276D01*
X0039830Y0171620D01*
X0039830Y0174620D01*
X0039855Y0174944D01*
X0039952Y0175254D01*
X0040115Y0175535D01*
X0040337Y0175772D01*
X0040606Y0175955D01*
X0040909Y0176073D01*
X0041230Y0176120D01*
X0051630Y0176220D01*
X0051630Y0168120D01*
X0048325Y0168120D01*
X0048325Y0168627D02*
X0051630Y0168627D01*
X0051630Y0169026D02*
X0048325Y0169026D01*
X0048325Y0169424D02*
X0051630Y0169424D01*
X0051630Y0169823D02*
X0048325Y0169823D01*
X0051630Y0170222D02*
X0040849Y0170222D01*
X0040247Y0170620D02*
X0051630Y0170620D01*
X0051630Y0171019D02*
X0039980Y0171019D01*
X0039860Y0171417D02*
X0051630Y0171417D01*
X0051630Y0171816D02*
X0039830Y0171816D01*
X0039830Y0172214D02*
X0051630Y0172214D01*
X0051630Y0172613D02*
X0039830Y0172613D01*
X0039830Y0173011D02*
X0051630Y0173011D01*
X0051630Y0173410D02*
X0039830Y0173410D01*
X0039830Y0173808D02*
X0051630Y0173808D01*
X0051630Y0174207D02*
X0039830Y0174207D01*
X0039830Y0174605D02*
X0051630Y0174605D01*
X0051630Y0175004D02*
X0039874Y0175004D01*
X0040038Y0175402D02*
X0051630Y0175402D01*
X0051630Y0175801D02*
X0040378Y0175801D01*
X0049465Y0176199D02*
X0051630Y0176199D01*
X0051630Y0191120D02*
X0048230Y0191120D01*
X0041830Y0191220D01*
X0041330Y0191220D01*
X0041006Y0191245D01*
X0040696Y0191342D01*
X0040415Y0191505D01*
X0040178Y0191727D01*
X0039995Y0191996D01*
X0039877Y0192299D01*
X0039830Y0192620D01*
X0039830Y0195520D01*
X0039858Y0195866D01*
X0039962Y0196197D01*
X0040137Y0196497D01*
X0040374Y0196751D01*
X0040662Y0196945D01*
X0040986Y0197070D01*
X0041330Y0197120D01*
X0048286Y0197100D01*
X0048286Y0199000D01*
X0051630Y0199020D01*
X0051630Y0191120D01*
X0051630Y0191343D02*
X0040695Y0191343D01*
X0040168Y0191741D02*
X0051630Y0191741D01*
X0051630Y0192140D02*
X0039939Y0192140D01*
X0039842Y0192538D02*
X0051630Y0192538D01*
X0051630Y0192937D02*
X0039830Y0192937D01*
X0039830Y0193335D02*
X0051630Y0193335D01*
X0051630Y0193734D02*
X0039830Y0193734D01*
X0039830Y0194132D02*
X0051630Y0194132D01*
X0051630Y0194531D02*
X0039830Y0194531D01*
X0039830Y0194929D02*
X0051630Y0194929D01*
X0051630Y0195328D02*
X0039830Y0195328D01*
X0039847Y0195726D02*
X0051630Y0195726D01*
X0051630Y0196125D02*
X0039939Y0196125D01*
X0040161Y0196523D02*
X0051630Y0196523D01*
X0051630Y0196922D02*
X0040628Y0196922D01*
X0048286Y0197320D02*
X0051630Y0197320D01*
X0051630Y0197719D02*
X0048286Y0197719D01*
X0048286Y0198117D02*
X0051630Y0198117D01*
X0051630Y0198516D02*
X0048286Y0198516D01*
X0048286Y0198914D02*
X0051630Y0198914D01*
X0051630Y0380120D02*
X0048325Y0380120D01*
X0048325Y0382120D01*
X0041430Y0382120D01*
X0041084Y0382148D01*
X0040753Y0382252D01*
X0040453Y0382427D01*
X0040199Y0382665D01*
X0040005Y0382952D01*
X0039880Y0383276D01*
X0039830Y0383620D01*
X0039830Y0386620D01*
X0039855Y0386944D01*
X0039952Y0387254D01*
X0040115Y0387535D01*
X0040337Y0387772D01*
X0040606Y0387955D01*
X0040909Y0388073D01*
X0041230Y0388120D01*
X0051630Y0388220D01*
X0051630Y0380120D01*
X0051630Y0380237D02*
X0048325Y0380237D01*
X0048325Y0380635D02*
X0051630Y0380635D01*
X0051630Y0381034D02*
X0048325Y0381034D01*
X0048325Y0381433D02*
X0051630Y0381433D01*
X0051630Y0381831D02*
X0048325Y0381831D01*
X0051630Y0382230D02*
X0040823Y0382230D01*
X0040238Y0382628D02*
X0051630Y0382628D01*
X0051630Y0383027D02*
X0039977Y0383027D01*
X0039858Y0383425D02*
X0051630Y0383425D01*
X0051630Y0383824D02*
X0039830Y0383824D01*
X0039830Y0384222D02*
X0051630Y0384222D01*
X0051630Y0384621D02*
X0039830Y0384621D01*
X0039830Y0385019D02*
X0051630Y0385019D01*
X0051630Y0385418D02*
X0039830Y0385418D01*
X0039830Y0385816D02*
X0051630Y0385816D01*
X0051630Y0386215D02*
X0039830Y0386215D01*
X0039830Y0386613D02*
X0051630Y0386613D01*
X0051630Y0387012D02*
X0039876Y0387012D01*
X0040043Y0387410D02*
X0051630Y0387410D01*
X0051630Y0387809D02*
X0040390Y0387809D01*
X0050299Y0388207D02*
X0051630Y0388207D01*
X0051630Y0403120D02*
X0048230Y0403120D01*
X0041830Y0403220D01*
X0041330Y0403220D01*
X0041006Y0403245D01*
X0040696Y0403342D01*
X0040415Y0403505D01*
X0040178Y0403727D01*
X0039995Y0403996D01*
X0039877Y0404299D01*
X0039830Y0404620D01*
X0039830Y0407520D01*
X0039858Y0407866D01*
X0039962Y0408197D01*
X0040137Y0408497D01*
X0040374Y0408751D01*
X0040662Y0408945D01*
X0040986Y0409070D01*
X0041330Y0409120D01*
X0048286Y0409100D01*
X0048286Y0411000D01*
X0051630Y0411020D01*
X0051630Y0403120D01*
X0051630Y0403351D02*
X0040681Y0403351D01*
X0040162Y0403749D02*
X0051630Y0403749D01*
X0051630Y0404148D02*
X0039936Y0404148D01*
X0039841Y0404546D02*
X0051630Y0404546D01*
X0051630Y0404945D02*
X0039830Y0404945D01*
X0039830Y0405343D02*
X0051630Y0405343D01*
X0051630Y0405742D02*
X0039830Y0405742D01*
X0039830Y0406140D02*
X0051630Y0406140D01*
X0051630Y0406539D02*
X0039830Y0406539D01*
X0039830Y0406937D02*
X0051630Y0406937D01*
X0051630Y0407336D02*
X0039830Y0407336D01*
X0039847Y0407734D02*
X0051630Y0407734D01*
X0051630Y0408133D02*
X0039941Y0408133D01*
X0040169Y0408531D02*
X0051630Y0408531D01*
X0051630Y0408930D02*
X0040640Y0408930D01*
X0048286Y0409328D02*
X0051630Y0409328D01*
X0051630Y0409727D02*
X0048286Y0409727D01*
X0048286Y0410125D02*
X0051630Y0410125D01*
X0051630Y0410524D02*
X0048286Y0410524D01*
X0048286Y0410922D02*
X0051630Y0410922D01*
X0321830Y0407520D02*
X0321858Y0407866D01*
X0321962Y0408197D01*
X0322137Y0408497D01*
X0322374Y0408751D01*
X0322662Y0408945D01*
X0322986Y0409070D01*
X0323330Y0409120D01*
X0330286Y0409100D01*
X0330286Y0411000D01*
X0333630Y0411020D01*
X0333630Y0403120D01*
X0330230Y0403120D01*
X0323830Y0403220D01*
X0323330Y0403220D01*
X0323006Y0403245D01*
X0322696Y0403342D01*
X0322415Y0403505D01*
X0322178Y0403727D01*
X0321995Y0403996D01*
X0321877Y0404299D01*
X0321830Y0404620D01*
X0321830Y0407520D01*
X0321830Y0407336D02*
X0333630Y0407336D01*
X0333630Y0407734D02*
X0321847Y0407734D01*
X0321941Y0408133D02*
X0333630Y0408133D01*
X0333630Y0408531D02*
X0322169Y0408531D01*
X0322640Y0408930D02*
X0333630Y0408930D01*
X0333630Y0409328D02*
X0330286Y0409328D01*
X0330286Y0409727D02*
X0333630Y0409727D01*
X0333630Y0410125D02*
X0330286Y0410125D01*
X0330286Y0410524D02*
X0333630Y0410524D01*
X0333630Y0410922D02*
X0330286Y0410922D01*
X0333630Y0406937D02*
X0321830Y0406937D01*
X0321830Y0406539D02*
X0333630Y0406539D01*
X0333630Y0406140D02*
X0321830Y0406140D01*
X0321830Y0405742D02*
X0333630Y0405742D01*
X0333630Y0405343D02*
X0321830Y0405343D01*
X0321830Y0404945D02*
X0333630Y0404945D01*
X0333630Y0404546D02*
X0321841Y0404546D01*
X0321936Y0404148D02*
X0333630Y0404148D01*
X0333630Y0403749D02*
X0322162Y0403749D01*
X0322681Y0403351D02*
X0333630Y0403351D01*
X0333630Y0388220D02*
X0323230Y0388120D01*
X0322909Y0388073D01*
X0322606Y0387955D01*
X0322337Y0387772D01*
X0322115Y0387535D01*
X0321952Y0387254D01*
X0321855Y0386944D01*
X0321830Y0386620D01*
X0321830Y0383620D01*
X0321880Y0383276D01*
X0322005Y0382952D01*
X0322199Y0382665D01*
X0322453Y0382427D01*
X0322753Y0382252D01*
X0323084Y0382148D01*
X0323430Y0382120D01*
X0330325Y0382120D01*
X0330325Y0380120D01*
X0333630Y0380120D01*
X0333630Y0388220D01*
X0333630Y0388207D02*
X0332299Y0388207D01*
X0333630Y0387809D02*
X0322390Y0387809D01*
X0322043Y0387410D02*
X0333630Y0387410D01*
X0333630Y0387012D02*
X0321876Y0387012D01*
X0321830Y0386613D02*
X0333630Y0386613D01*
X0333630Y0386215D02*
X0321830Y0386215D01*
X0321830Y0385816D02*
X0333630Y0385816D01*
X0333630Y0385418D02*
X0321830Y0385418D01*
X0321830Y0385019D02*
X0333630Y0385019D01*
X0333630Y0384621D02*
X0321830Y0384621D01*
X0321830Y0384222D02*
X0333630Y0384222D01*
X0333630Y0383824D02*
X0321830Y0383824D01*
X0321858Y0383425D02*
X0333630Y0383425D01*
X0333630Y0383027D02*
X0321977Y0383027D01*
X0322238Y0382628D02*
X0333630Y0382628D01*
X0333630Y0382230D02*
X0322823Y0382230D01*
X0330325Y0381831D02*
X0333630Y0381831D01*
X0333630Y0381433D02*
X0330325Y0381433D01*
X0330325Y0381034D02*
X0333630Y0381034D01*
X0333630Y0380635D02*
X0330325Y0380635D01*
X0330325Y0380237D02*
X0333630Y0380237D01*
D43*
X0336387Y0385962D03*
X0336817Y0385983D03*
X0337407Y0385944D03*
X0337919Y0385983D03*
X0337407Y0404999D03*
X0337919Y0405038D03*
X0336817Y0405038D03*
X0336387Y0405017D03*
X0055919Y0405038D03*
X0055407Y0404999D03*
X0054817Y0405038D03*
X0054387Y0405017D03*
X0054817Y0385983D03*
X0054387Y0385962D03*
X0055407Y0385944D03*
X0055919Y0385983D03*
X0055919Y0193038D03*
X0055407Y0192999D03*
X0054817Y0193038D03*
X0054387Y0193017D03*
X0054817Y0173983D03*
X0054387Y0173962D03*
X0055407Y0173944D03*
X0055919Y0173983D03*
X0336387Y0173962D03*
X0336817Y0173983D03*
X0337407Y0173944D03*
X0337919Y0173983D03*
X0337407Y0192999D03*
X0337919Y0193038D03*
X0336817Y0193038D03*
X0336387Y0193017D03*
D44*
X0426750Y0108750D03*
X0430750Y0108750D03*
X0434750Y0108750D03*
X0152750Y0108750D03*
X0148750Y0108750D03*
X0144750Y0108750D03*
X0144750Y0320750D03*
X0148750Y0320750D03*
X0152750Y0320750D03*
X0426750Y0320750D03*
X0430750Y0320750D03*
X0434750Y0320750D03*
D45*
X0433500Y0320878D02*
X0432000Y0320878D01*
X0432000Y0321250D02*
X0432000Y0320250D01*
X0433500Y0320250D01*
X0433500Y0321250D01*
X0432000Y0321250D01*
X0432000Y0320379D02*
X0433500Y0320379D01*
X0433500Y0109250D02*
X0433500Y0108250D01*
X0432000Y0108250D01*
X0432000Y0109250D01*
X0433500Y0109250D01*
X0433500Y0109010D02*
X0432000Y0109010D01*
X0432000Y0108512D02*
X0433500Y0108512D01*
X0151500Y0108512D02*
X0150000Y0108512D01*
X0150000Y0108250D02*
X0150000Y0109250D01*
X0151500Y0109250D01*
X0151500Y0108250D01*
X0150000Y0108250D01*
X0150000Y0109010D02*
X0151500Y0109010D01*
X0151500Y0320250D02*
X0150000Y0320250D01*
X0150000Y0321250D01*
X0151500Y0321250D01*
X0151500Y0320250D01*
X0151500Y0320379D02*
X0150000Y0320379D01*
X0150000Y0320878D02*
X0151500Y0320878D01*
D46*
X0303219Y0316774D03*
X0303219Y0294726D03*
X0303219Y0104774D03*
X0303219Y0082726D03*
X0585219Y0082726D03*
X0585219Y0104774D03*
X0585219Y0294726D03*
X0585219Y0316774D03*
D47*
X0570750Y0311656D03*
X0570750Y0307719D03*
X0570750Y0303781D03*
X0570750Y0299844D03*
X0570750Y0099656D03*
X0570750Y0095719D03*
X0570750Y0091781D03*
X0570750Y0087844D03*
X0288750Y0087844D03*
X0288750Y0091781D03*
X0288750Y0095719D03*
X0288750Y0099656D03*
X0288750Y0299844D03*
X0288750Y0303781D03*
X0288750Y0307719D03*
X0288750Y0311656D03*
D48*
X0072185Y0020500D02*
X0072187Y0020619D01*
X0072193Y0020738D01*
X0072203Y0020857D01*
X0072217Y0020975D01*
X0072235Y0021093D01*
X0072256Y0021210D01*
X0072282Y0021326D01*
X0072312Y0021442D01*
X0072345Y0021556D01*
X0072382Y0021669D01*
X0072423Y0021781D01*
X0072468Y0021892D01*
X0072516Y0022001D01*
X0072568Y0022108D01*
X0072624Y0022213D01*
X0072683Y0022317D01*
X0072745Y0022418D01*
X0072811Y0022518D01*
X0072880Y0022615D01*
X0072952Y0022709D01*
X0073028Y0022802D01*
X0073106Y0022891D01*
X0073187Y0022978D01*
X0073272Y0023063D01*
X0073359Y0023144D01*
X0073448Y0023222D01*
X0073541Y0023298D01*
X0073635Y0023370D01*
X0073732Y0023439D01*
X0073832Y0023505D01*
X0073933Y0023567D01*
X0074037Y0023626D01*
X0074142Y0023682D01*
X0074249Y0023734D01*
X0074358Y0023782D01*
X0074469Y0023827D01*
X0074581Y0023868D01*
X0074694Y0023905D01*
X0074808Y0023938D01*
X0074924Y0023968D01*
X0075040Y0023994D01*
X0075157Y0024015D01*
X0075275Y0024033D01*
X0075393Y0024047D01*
X0075512Y0024057D01*
X0075631Y0024063D01*
X0075750Y0024065D01*
X0075869Y0024063D01*
X0075988Y0024057D01*
X0076107Y0024047D01*
X0076225Y0024033D01*
X0076343Y0024015D01*
X0076460Y0023994D01*
X0076576Y0023968D01*
X0076692Y0023938D01*
X0076806Y0023905D01*
X0076919Y0023868D01*
X0077031Y0023827D01*
X0077142Y0023782D01*
X0077251Y0023734D01*
X0077358Y0023682D01*
X0077463Y0023626D01*
X0077567Y0023567D01*
X0077668Y0023505D01*
X0077768Y0023439D01*
X0077865Y0023370D01*
X0077959Y0023298D01*
X0078052Y0023222D01*
X0078141Y0023144D01*
X0078228Y0023063D01*
X0078313Y0022978D01*
X0078394Y0022891D01*
X0078472Y0022802D01*
X0078548Y0022709D01*
X0078620Y0022615D01*
X0078689Y0022518D01*
X0078755Y0022418D01*
X0078817Y0022317D01*
X0078876Y0022213D01*
X0078932Y0022108D01*
X0078984Y0022001D01*
X0079032Y0021892D01*
X0079077Y0021781D01*
X0079118Y0021669D01*
X0079155Y0021556D01*
X0079188Y0021442D01*
X0079218Y0021326D01*
X0079244Y0021210D01*
X0079265Y0021093D01*
X0079283Y0020975D01*
X0079297Y0020857D01*
X0079307Y0020738D01*
X0079313Y0020619D01*
X0079315Y0020500D01*
X0079313Y0020381D01*
X0079307Y0020262D01*
X0079297Y0020143D01*
X0079283Y0020025D01*
X0079265Y0019907D01*
X0079244Y0019790D01*
X0079218Y0019674D01*
X0079188Y0019558D01*
X0079155Y0019444D01*
X0079118Y0019331D01*
X0079077Y0019219D01*
X0079032Y0019108D01*
X0078984Y0018999D01*
X0078932Y0018892D01*
X0078876Y0018787D01*
X0078817Y0018683D01*
X0078755Y0018582D01*
X0078689Y0018482D01*
X0078620Y0018385D01*
X0078548Y0018291D01*
X0078472Y0018198D01*
X0078394Y0018109D01*
X0078313Y0018022D01*
X0078228Y0017937D01*
X0078141Y0017856D01*
X0078052Y0017778D01*
X0077959Y0017702D01*
X0077865Y0017630D01*
X0077768Y0017561D01*
X0077668Y0017495D01*
X0077567Y0017433D01*
X0077463Y0017374D01*
X0077358Y0017318D01*
X0077251Y0017266D01*
X0077142Y0017218D01*
X0077031Y0017173D01*
X0076919Y0017132D01*
X0076806Y0017095D01*
X0076692Y0017062D01*
X0076576Y0017032D01*
X0076460Y0017006D01*
X0076343Y0016985D01*
X0076225Y0016967D01*
X0076107Y0016953D01*
X0075988Y0016943D01*
X0075869Y0016937D01*
X0075750Y0016935D01*
X0075631Y0016937D01*
X0075512Y0016943D01*
X0075393Y0016953D01*
X0075275Y0016967D01*
X0075157Y0016985D01*
X0075040Y0017006D01*
X0074924Y0017032D01*
X0074808Y0017062D01*
X0074694Y0017095D01*
X0074581Y0017132D01*
X0074469Y0017173D01*
X0074358Y0017218D01*
X0074249Y0017266D01*
X0074142Y0017318D01*
X0074037Y0017374D01*
X0073933Y0017433D01*
X0073832Y0017495D01*
X0073732Y0017561D01*
X0073635Y0017630D01*
X0073541Y0017702D01*
X0073448Y0017778D01*
X0073359Y0017856D01*
X0073272Y0017937D01*
X0073187Y0018022D01*
X0073106Y0018109D01*
X0073028Y0018198D01*
X0072952Y0018291D01*
X0072880Y0018385D01*
X0072811Y0018482D01*
X0072745Y0018582D01*
X0072683Y0018683D01*
X0072624Y0018787D01*
X0072568Y0018892D01*
X0072516Y0018999D01*
X0072468Y0019108D01*
X0072423Y0019219D01*
X0072382Y0019331D01*
X0072345Y0019444D01*
X0072312Y0019558D01*
X0072282Y0019674D01*
X0072256Y0019790D01*
X0072235Y0019907D01*
X0072217Y0020025D01*
X0072203Y0020143D01*
X0072193Y0020262D01*
X0072187Y0020381D01*
X0072185Y0020500D01*
D49*
X0075750Y0020500D03*
M02*
