%
M48
M72
T01C0.0150
T02C0.0260
T03C0.0276
T04C0.0709
T05C0.0800
T06C0.1300
%
T01
X5825Y4225
X4675Y4925
X10725Y8875
X10675Y9975
X10875Y10675
X13375Y10875
X15375Y12875
X13950Y13850
X14025Y15125
X13675Y15875
X14025Y16625
X12875Y17375
X12875Y18875
X12775Y19425
X13675Y19175
X14075Y19575
X15375Y20375
X14775Y22875
X16375Y25075
X18375Y25075
X20375Y25125
X20370Y26870
X17375Y27575
X15370Y26870
X13375Y28075
X13225Y29375
X10725Y30075
X10675Y31175
X10875Y31875
X13375Y32075
X15375Y34075
X13950Y35050
X14025Y36325
X13675Y37075
X14025Y37825
X12875Y38575
X12875Y40075
X12775Y40625
X13675Y40375
X14075Y40775
X15375Y41575
X14775Y44075
X10875Y39575
X7875Y38075
X8875Y37075
X9375Y35825
X8875Y34575
X5875Y33630
X4875Y33380
X4875Y32630
X4875Y31880
X5875Y31630
X4225Y34525
X5225Y36325
X6375Y37075
X4375Y37775
X6225Y40425
X5525Y41375
X4375Y41375
X5875Y43575
X7875Y42075
X18575Y34875
X19425Y34525
X18685Y33885
X17925Y34075
X17375Y34225
X16875Y33075
X16375Y32575
X19375Y31875
X19875Y32575
X20975Y32325
X21075Y31188
X20532Y31268
X19875Y31075
X17875Y30075
X22675Y31375
X22682Y31918
X22375Y34125
X23375Y34075
X25875Y33075
X25875Y32575
X28875Y34075
X28875Y35075
X28875Y36075
X29875Y36075
X29875Y35075
X29875Y34075
X30375Y33075
X32425Y34525
X33075Y33380
X33075Y32630
X33075Y31880
X34075Y31630
X34075Y33630
X37075Y34575
X37575Y35825
X37075Y37075
X36075Y38075
X34575Y37075
X33425Y36325
X32575Y37775
X34425Y40425
X33725Y41375
X32575Y41375
X36075Y42075
X34075Y43575
X28375Y44075
X27375Y44075
X29375Y39575
X39075Y39575
X40975Y40625
X41075Y40075
X41875Y40375
X42275Y40775
X43575Y41575
X42975Y44075
X41075Y38575
X42225Y37825
X41875Y37075
X42225Y36325
X42150Y35050
X43575Y34075
X45075Y33075
X44575Y32575
X45575Y34225
X46125Y34075
X46885Y33885
X47625Y34525
X46775Y34875
X48075Y32575
X47575Y31875
X48732Y31268
X49275Y31188
X49175Y32325
X50882Y31918
X50875Y31375
X52575Y29575
X53075Y29575
X54775Y30075
X54075Y32575
X54075Y33075
X51575Y34075
X50575Y34125
X48075Y31075
X46075Y30075
X45575Y27575
X43570Y26870
X44575Y25075
X46575Y25075
X48575Y25125
X48570Y26870
X42975Y22875
X43575Y20375
X42275Y19575
X41875Y19175
X41075Y18875
X40975Y19425
X39075Y18375
X41075Y17375
X42225Y16625
X41875Y15875
X42225Y15125
X42150Y13850
X43575Y12875
X45075Y11875
X44575Y11375
X46125Y12875
X45575Y13025
X46885Y12685
X47625Y13325
X46775Y13675
X48075Y11375
X47575Y10675
X48075Y9875
X48732Y10068
X49275Y9988
X49175Y11125
X50882Y10718
X50875Y10175
X52575Y8375
X53075Y8375
X54775Y8875
X54075Y11375
X54075Y11875
X51575Y12875
X50575Y12925
X46075Y8875
X45575Y6375
X43570Y5670
X44575Y3875
X46575Y3875
X48575Y3925
X48570Y5670
X41575Y6875
X41425Y8175
X38925Y8875
X38875Y9975
X39075Y10675
X41575Y10875
X37075Y13375
X37575Y14625
X37075Y15875
X36075Y16875
X34575Y15875
X33425Y15125
X32575Y16575
X29875Y14875
X29875Y13875
X29875Y12875
X28875Y12875
X28875Y13875
X28875Y14875
X32425Y13325
X33075Y12180
X33075Y11430
X33075Y10680
X34075Y10430
X34075Y12430
X30375Y11875
X29875Y9375
X26575Y8875
X24875Y8375
X24375Y8375
X22675Y10175
X22682Y10718
X20975Y11125
X19875Y11375
X19375Y10675
X19875Y9875
X20532Y10068
X21075Y9988
X17875Y8875
X16375Y11375
X16875Y11875
X17925Y12875
X17375Y13025
X18685Y12685
X19425Y13325
X18575Y13675
X22375Y12925
X23375Y12875
X25875Y11875
X25875Y11375
X20370Y5670
X20375Y3925
X18375Y3875
X16375Y3875
X15370Y5670
X17375Y6375
X13375Y6875
X13225Y8175
X8875Y13375
X9375Y14625
X8875Y15875
X7875Y16875
X6375Y15875
X5225Y15125
X4375Y16575
X6225Y19225
X5525Y20175
X4375Y20175
X5875Y22375
X7875Y20875
X10875Y18375
X4225Y13325
X4875Y12180
X4875Y11430
X4875Y10680
X5875Y10430
X5875Y12430
X5825Y25425
X4675Y26125
X24375Y29575
X24875Y29575
X26575Y30075
X29875Y30575
X32875Y26125
X34025Y25425
X34075Y22375
X36075Y20875
X34425Y19225
X33725Y20175
X32575Y20175
X29375Y18375
X28375Y22875
X27375Y22875
X27375Y25125
X28375Y25075
X38925Y30075
X38875Y31175
X39075Y31875
X41575Y32075
X41425Y29375
X41575Y28075
X55575Y25125
X56575Y25075
X56575Y22875
X55575Y22875
X57575Y18375
X57075Y14875
X57075Y13875
X57075Y12875
X58075Y12875
X58075Y13875
X58075Y14875
X58575Y11875
X58075Y9375
X56575Y3875
X55575Y3925
X34025Y4225
X32875Y4925
X28375Y3875
X27375Y3925
X58075Y30575
X58575Y33075
X58075Y34075
X58075Y35075
X58075Y36075
X57075Y36075
X57075Y35075
X57075Y34075
X57575Y39575
X56575Y44075
X55575Y44075
T02
X33792Y40504
X33741Y40500
X33682Y40504
X33639Y40502
X33682Y38598
X33639Y38596
X33741Y38594
X33792Y38598
X33792Y19304
X33741Y19300
X33682Y19304
X33639Y19302
X33682Y17398
X33639Y17396
X33741Y17394
X33792Y17398
X5592Y17398
X5541Y17394
X5482Y17398
X5439Y17396
X5439Y19302
X5482Y19304
X5541Y19300
X5592Y19304
X5541Y38594
X5592Y38598
X5482Y38598
X5439Y38596
X5439Y40502
X5482Y40504
X5541Y40500
X5592Y40504
T03
X4429Y40635
X4363Y40635
X4285Y40635
X4220Y40635
X4220Y38486
X4286Y38486
X4362Y38485
X4429Y38485
X4429Y19435
X4363Y19435
X4285Y19435
X4220Y19435
X4220Y17286
X4286Y17286
X4362Y17285
X4429Y17285
X32420Y17286
X32486Y17286
X32562Y17285
X32629Y17285
X32629Y19435
X32563Y19435
X32485Y19435
X32420Y19435
X32420Y38486
X32486Y38486
X32562Y38485
X32629Y38485
X32629Y40635
X32563Y40635
X32485Y40635
X32420Y40635
T04
X29375Y35575
X29375Y34575
X29375Y14375
X29375Y13375
X57575Y13375
X57575Y14375
X57575Y34575
X57575Y35575
T05
X34675Y27475
X32875Y27475
X6475Y27475
X4675Y27475
X4675Y6275
X6475Y6275
X32875Y6275
X34675Y6275
T06
X37575Y3875
X29875Y5875
X29875Y16875
X38075Y22875
X37575Y25075
X29875Y27075
X29875Y38075
X38075Y44075
X58075Y38075
X58075Y27075
X58075Y16875
X58075Y5875
X9375Y3875
X9875Y22875
X9375Y25075
X9875Y44075
M30
