G75*
%MOIN*%
%OFA0B0*%
%FSLAX25Y25*%
%IPPOS*%
%LPD*%
%AMOC8*
5,1,8,0,0,1.08239X$1,22.5*
%
%ADD10R,0.03937X0.04331*%
%ADD11R,0.04331X0.03937*%
%ADD12R,0.05512X0.06299*%
%ADD13R,0.05512X0.11811*%
%ADD14R,0.03543X0.03150*%
%ADD15R,0.06000X0.03200*%
%ADD16R,0.07500X0.12300*%
%ADD17R,0.03937X0.07874*%
%ADD18C,0.01772*%
%ADD19R,0.12480X0.03937*%
%ADD20R,0.04724X0.05512*%
%ADD21R,0.06000X0.03000*%
%ADD22R,0.05787X0.06000*%
%ADD23R,0.03150X0.04724*%
%ADD24C,0.02362*%
%ADD25C,0.00500*%
%ADD26R,0.02756X0.02756*%
%ADD27R,0.05000X0.02200*%
%ADD28R,0.02200X0.05000*%
%ADD29R,0.04724X0.02165*%
%ADD30R,0.04724X0.02362*%
%ADD31R,0.04331X0.04724*%
%ADD32R,0.05748X0.07874*%
%ADD33R,0.09843X0.05610*%
%ADD34C,0.03937*%
%ADD35C,0.04331*%
%ADD36C,0.00197*%
%ADD37R,0.07874X0.04724*%
%ADD38R,0.05315X0.02362*%
D10*
X0053750Y0130904D03*
X0053750Y0137596D03*
X0178750Y0123317D03*
X0178750Y0116624D03*
X0178750Y0102096D03*
X0178750Y0095404D03*
X0335750Y0130904D03*
X0335750Y0137596D03*
X0460750Y0123317D03*
X0460750Y0116624D03*
X0460750Y0102096D03*
X0460750Y0095404D03*
X0460750Y0307404D03*
X0460750Y0314096D03*
X0460750Y0328624D03*
X0460750Y0335317D03*
X0335750Y0342904D03*
X0335750Y0349596D03*
X0178750Y0335317D03*
X0178750Y0328624D03*
X0178750Y0314096D03*
X0178750Y0307404D03*
X0053750Y0342904D03*
X0053750Y0349596D03*
D11*
X0052096Y0358250D03*
X0045404Y0358250D03*
X0075404Y0349750D03*
X0075404Y0343750D03*
X0082096Y0343750D03*
X0082096Y0349750D03*
X0082096Y0370750D03*
X0075404Y0370750D03*
X0095404Y0393250D03*
X0102096Y0393250D03*
X0102096Y0400750D03*
X0095404Y0400750D03*
X0095404Y0420750D03*
X0102096Y0420750D03*
X0145404Y0393750D03*
X0152096Y0393750D03*
X0152096Y0378250D03*
X0145404Y0378250D03*
X0145404Y0363250D03*
X0152096Y0363250D03*
X0152096Y0356250D03*
X0145404Y0356250D03*
X0145404Y0348250D03*
X0152096Y0348250D03*
X0122096Y0320750D03*
X0115404Y0320750D03*
X0094596Y0318750D03*
X0087904Y0318750D03*
X0087904Y0308750D03*
X0094596Y0308750D03*
X0095404Y0208750D03*
X0102096Y0208750D03*
X0102096Y0188750D03*
X0095404Y0188750D03*
X0095404Y0181250D03*
X0102096Y0181250D03*
X0082096Y0158750D03*
X0075404Y0158750D03*
X0052096Y0146250D03*
X0045404Y0146250D03*
X0075404Y0137750D03*
X0075404Y0131750D03*
X0082096Y0131750D03*
X0082096Y0137750D03*
X0087904Y0106750D03*
X0094596Y0106750D03*
X0094596Y0096750D03*
X0087904Y0096750D03*
X0115404Y0108750D03*
X0122096Y0108750D03*
X0145404Y0136250D03*
X0152096Y0136250D03*
X0152096Y0144250D03*
X0145404Y0144250D03*
X0145404Y0151250D03*
X0152096Y0151250D03*
X0152096Y0166250D03*
X0145404Y0166250D03*
X0145404Y0181750D03*
X0152096Y0181750D03*
X0255404Y0103750D03*
X0262096Y0103750D03*
X0269404Y0103750D03*
X0276096Y0103750D03*
X0276096Y0083750D03*
X0269404Y0083750D03*
X0262096Y0083750D03*
X0255404Y0083750D03*
X0327404Y0146250D03*
X0334096Y0146250D03*
X0357404Y0137750D03*
X0357404Y0131750D03*
X0364096Y0131750D03*
X0364096Y0137750D03*
X0364096Y0158750D03*
X0357404Y0158750D03*
X0377404Y0181250D03*
X0384096Y0181250D03*
X0384096Y0188750D03*
X0377404Y0188750D03*
X0377404Y0208750D03*
X0384096Y0208750D03*
X0427404Y0181750D03*
X0434096Y0181750D03*
X0434096Y0166250D03*
X0427404Y0166250D03*
X0427404Y0151250D03*
X0434096Y0151250D03*
X0434096Y0144250D03*
X0427404Y0144250D03*
X0427404Y0136250D03*
X0434096Y0136250D03*
X0404096Y0108750D03*
X0397404Y0108750D03*
X0376596Y0106750D03*
X0369904Y0106750D03*
X0369904Y0096750D03*
X0376596Y0096750D03*
X0272096Y0161750D03*
X0265404Y0161750D03*
X0262096Y0295750D03*
X0255404Y0295750D03*
X0269404Y0295750D03*
X0276096Y0295750D03*
X0276096Y0315750D03*
X0269404Y0315750D03*
X0262096Y0315750D03*
X0255404Y0315750D03*
X0327404Y0358250D03*
X0334096Y0358250D03*
X0357404Y0349750D03*
X0357404Y0343750D03*
X0364096Y0343750D03*
X0364096Y0349750D03*
X0364096Y0370750D03*
X0357404Y0370750D03*
X0377404Y0393250D03*
X0384096Y0393250D03*
X0384096Y0400750D03*
X0377404Y0400750D03*
X0377404Y0420750D03*
X0384096Y0420750D03*
X0427404Y0393750D03*
X0434096Y0393750D03*
X0434096Y0378250D03*
X0427404Y0378250D03*
X0427404Y0363250D03*
X0434096Y0363250D03*
X0434096Y0356250D03*
X0427404Y0356250D03*
X0427404Y0348250D03*
X0434096Y0348250D03*
X0404096Y0320750D03*
X0397404Y0320750D03*
X0376596Y0318750D03*
X0369904Y0318750D03*
X0369904Y0308750D03*
X0376596Y0308750D03*
X0272096Y0373750D03*
X0265404Y0373750D03*
X0537404Y0315750D03*
X0544096Y0315750D03*
X0551404Y0315750D03*
X0558096Y0315750D03*
X0558096Y0295750D03*
X0551404Y0295750D03*
X0544096Y0295750D03*
X0537404Y0295750D03*
X0547404Y0373750D03*
X0554096Y0373750D03*
X0554096Y0161750D03*
X0547404Y0161750D03*
X0544096Y0103750D03*
X0537404Y0103750D03*
X0551404Y0103750D03*
X0558096Y0103750D03*
X0558096Y0083750D03*
X0551404Y0083750D03*
X0544096Y0083750D03*
X0537404Y0083750D03*
D12*
X0406262Y0081750D03*
X0395238Y0081750D03*
X0395238Y0116750D03*
X0406262Y0116750D03*
X0368262Y0146250D03*
X0357238Y0146250D03*
X0395238Y0293750D03*
X0406262Y0293750D03*
X0406262Y0328750D03*
X0395238Y0328750D03*
X0368262Y0358250D03*
X0357238Y0358250D03*
X0124262Y0328750D03*
X0113238Y0328750D03*
X0086262Y0358250D03*
X0075238Y0358250D03*
X0113238Y0293750D03*
X0124262Y0293750D03*
X0086262Y0146250D03*
X0075238Y0146250D03*
X0113238Y0116750D03*
X0124262Y0116750D03*
X0124262Y0081750D03*
X0113238Y0081750D03*
D13*
X0123750Y0061199D03*
X0123750Y0042301D03*
X0405750Y0042301D03*
X0405750Y0061199D03*
X0405750Y0254301D03*
X0405750Y0273199D03*
X0123750Y0273199D03*
X0123750Y0254301D03*
D14*
X0068081Y0346750D03*
X0059813Y0350490D03*
X0059813Y0343010D03*
X0059813Y0138490D03*
X0059813Y0131010D03*
X0068081Y0134750D03*
X0341813Y0131010D03*
X0341813Y0138490D03*
X0350081Y0134750D03*
X0341813Y0343010D03*
X0341813Y0350490D03*
X0350081Y0346750D03*
D15*
X0362640Y0334760D03*
X0362640Y0325750D03*
X0362640Y0316810D03*
X0362640Y0122760D03*
X0362640Y0113750D03*
X0362640Y0104810D03*
X0080640Y0104810D03*
X0080640Y0113750D03*
X0080640Y0122760D03*
X0080640Y0316810D03*
X0080640Y0325750D03*
X0080640Y0334760D03*
D16*
X0057250Y0325750D03*
X0339250Y0325750D03*
X0339250Y0113750D03*
X0057250Y0113750D03*
D17*
X0148750Y0045246D03*
X0158750Y0045246D03*
X0168750Y0045246D03*
X0178750Y0045246D03*
X0188750Y0045246D03*
X0198750Y0045246D03*
X0208750Y0045246D03*
X0218750Y0045246D03*
X0218750Y0032254D03*
X0208750Y0032254D03*
X0198750Y0032254D03*
X0188750Y0032254D03*
X0178750Y0032254D03*
X0168750Y0032254D03*
X0158750Y0032254D03*
X0148750Y0032254D03*
X0238750Y0032254D03*
X0248750Y0032254D03*
X0258750Y0032254D03*
X0268750Y0032254D03*
X0278750Y0032254D03*
X0288750Y0032254D03*
X0288750Y0045246D03*
X0278750Y0045246D03*
X0268750Y0045246D03*
X0258750Y0045246D03*
X0248750Y0045246D03*
X0238750Y0045246D03*
X0430750Y0045246D03*
X0440750Y0045246D03*
X0450750Y0045246D03*
X0460750Y0045246D03*
X0470750Y0045246D03*
X0480750Y0045246D03*
X0490750Y0045246D03*
X0500750Y0045246D03*
X0500750Y0032254D03*
X0490750Y0032254D03*
X0480750Y0032254D03*
X0470750Y0032254D03*
X0460750Y0032254D03*
X0450750Y0032254D03*
X0440750Y0032254D03*
X0430750Y0032254D03*
X0520750Y0032254D03*
X0530750Y0032254D03*
X0540750Y0032254D03*
X0550750Y0032254D03*
X0560750Y0032254D03*
X0570750Y0032254D03*
X0570750Y0045246D03*
X0560750Y0045246D03*
X0550750Y0045246D03*
X0540750Y0045246D03*
X0530750Y0045246D03*
X0520750Y0045246D03*
X0520750Y0222254D03*
X0510750Y0222254D03*
X0500750Y0222254D03*
X0484750Y0222254D03*
X0474750Y0222254D03*
X0464750Y0222254D03*
X0454750Y0222254D03*
X0444750Y0222254D03*
X0434750Y0222254D03*
X0424750Y0222254D03*
X0414750Y0222254D03*
X0404750Y0222254D03*
X0394750Y0222254D03*
X0394750Y0235246D03*
X0404750Y0235246D03*
X0414750Y0235246D03*
X0424750Y0235246D03*
X0434750Y0235246D03*
X0444750Y0235246D03*
X0440750Y0244254D03*
X0450750Y0244254D03*
X0454750Y0235246D03*
X0464750Y0235246D03*
X0460750Y0244254D03*
X0470750Y0244254D03*
X0480750Y0244254D03*
X0484750Y0235246D03*
X0474750Y0235246D03*
X0490750Y0244254D03*
X0500750Y0244254D03*
X0500750Y0235246D03*
X0510750Y0235246D03*
X0520750Y0235246D03*
X0530750Y0235246D03*
X0530750Y0244254D03*
X0520750Y0244254D03*
X0520750Y0257246D03*
X0530750Y0257246D03*
X0540750Y0257246D03*
X0550750Y0257246D03*
X0560750Y0257246D03*
X0570750Y0257246D03*
X0570750Y0244254D03*
X0560750Y0244254D03*
X0560750Y0235246D03*
X0570750Y0235246D03*
X0570750Y0222254D03*
X0560750Y0222254D03*
X0550750Y0222254D03*
X0540750Y0222254D03*
X0530750Y0222254D03*
X0540750Y0235246D03*
X0550750Y0235246D03*
X0550750Y0244254D03*
X0540750Y0244254D03*
X0500750Y0257246D03*
X0490750Y0257246D03*
X0480750Y0257246D03*
X0470750Y0257246D03*
X0460750Y0257246D03*
X0450750Y0257246D03*
X0440750Y0257246D03*
X0430750Y0257246D03*
X0430750Y0244254D03*
X0288750Y0244254D03*
X0278750Y0244254D03*
X0278750Y0235246D03*
X0288750Y0235246D03*
X0288750Y0222254D03*
X0278750Y0222254D03*
X0268750Y0222254D03*
X0258750Y0222254D03*
X0248750Y0222254D03*
X0238750Y0222254D03*
X0228750Y0222254D03*
X0218750Y0222254D03*
X0202750Y0222254D03*
X0192750Y0222254D03*
X0182750Y0222254D03*
X0172750Y0222254D03*
X0162750Y0222254D03*
X0152750Y0222254D03*
X0142750Y0222254D03*
X0132750Y0222254D03*
X0122750Y0222254D03*
X0112750Y0222254D03*
X0112750Y0235246D03*
X0122750Y0235246D03*
X0132750Y0235246D03*
X0142750Y0235246D03*
X0152750Y0235246D03*
X0162750Y0235246D03*
X0158750Y0244254D03*
X0148750Y0244254D03*
X0148750Y0257246D03*
X0158750Y0257246D03*
X0168750Y0257246D03*
X0178750Y0257246D03*
X0188750Y0257246D03*
X0198750Y0257246D03*
X0208750Y0257246D03*
X0218750Y0257246D03*
X0218750Y0244254D03*
X0208750Y0244254D03*
X0198750Y0244254D03*
X0202750Y0235246D03*
X0192750Y0235246D03*
X0188750Y0244254D03*
X0178750Y0244254D03*
X0182750Y0235246D03*
X0172750Y0235246D03*
X0168750Y0244254D03*
X0218750Y0235246D03*
X0228750Y0235246D03*
X0238750Y0235246D03*
X0238750Y0244254D03*
X0248750Y0244254D03*
X0258750Y0244254D03*
X0268750Y0244254D03*
X0268750Y0235246D03*
X0258750Y0235246D03*
X0248750Y0235246D03*
X0248750Y0257246D03*
X0258750Y0257246D03*
X0268750Y0257246D03*
X0278750Y0257246D03*
X0288750Y0257246D03*
X0238750Y0257246D03*
X0238750Y0434254D03*
X0228750Y0434254D03*
X0218750Y0434254D03*
X0202750Y0434254D03*
X0192750Y0434254D03*
X0182750Y0434254D03*
X0172750Y0434254D03*
X0162750Y0434254D03*
X0152750Y0434254D03*
X0142750Y0434254D03*
X0132750Y0434254D03*
X0122750Y0434254D03*
X0112750Y0434254D03*
X0112750Y0447246D03*
X0122750Y0447246D03*
X0132750Y0447246D03*
X0142750Y0447246D03*
X0152750Y0447246D03*
X0162750Y0447246D03*
X0172750Y0447246D03*
X0182750Y0447246D03*
X0192750Y0447246D03*
X0202750Y0447246D03*
X0218750Y0447246D03*
X0228750Y0447246D03*
X0238750Y0447246D03*
X0248750Y0447246D03*
X0258750Y0447246D03*
X0268750Y0447246D03*
X0278750Y0447246D03*
X0288750Y0447246D03*
X0288750Y0434254D03*
X0278750Y0434254D03*
X0268750Y0434254D03*
X0258750Y0434254D03*
X0248750Y0434254D03*
X0394750Y0434254D03*
X0404750Y0434254D03*
X0414750Y0434254D03*
X0424750Y0434254D03*
X0434750Y0434254D03*
X0444750Y0434254D03*
X0454750Y0434254D03*
X0464750Y0434254D03*
X0474750Y0434254D03*
X0484750Y0434254D03*
X0500750Y0434254D03*
X0510750Y0434254D03*
X0520750Y0434254D03*
X0530750Y0434254D03*
X0540750Y0434254D03*
X0550750Y0434254D03*
X0560750Y0434254D03*
X0570750Y0434254D03*
X0570750Y0447246D03*
X0560750Y0447246D03*
X0550750Y0447246D03*
X0540750Y0447246D03*
X0530750Y0447246D03*
X0520750Y0447246D03*
X0510750Y0447246D03*
X0500750Y0447246D03*
X0484750Y0447246D03*
X0474750Y0447246D03*
X0464750Y0447246D03*
X0454750Y0447246D03*
X0444750Y0447246D03*
X0434750Y0447246D03*
X0424750Y0447246D03*
X0414750Y0447246D03*
X0404750Y0447246D03*
X0394750Y0447246D03*
D18*
X0512886Y0333474D02*
X0518614Y0333474D01*
X0518614Y0328750D02*
X0512886Y0328750D01*
X0512886Y0324026D02*
X0518614Y0324026D01*
X0518614Y0121474D02*
X0512886Y0121474D01*
X0512886Y0116750D02*
X0518614Y0116750D01*
X0518614Y0112026D02*
X0512886Y0112026D01*
X0236614Y0112026D02*
X0230886Y0112026D01*
X0230886Y0116750D02*
X0236614Y0116750D01*
X0236614Y0121474D02*
X0230886Y0121474D01*
X0230886Y0324026D02*
X0236614Y0324026D01*
X0236614Y0328750D02*
X0230886Y0328750D01*
X0230886Y0333474D02*
X0236614Y0333474D01*
D19*
X0283750Y0340750D03*
X0283750Y0350750D03*
X0283750Y0360750D03*
X0303750Y0360750D03*
X0303750Y0350750D03*
X0303750Y0340750D03*
X0303750Y0148750D03*
X0303750Y0138750D03*
X0303750Y0128750D03*
X0283750Y0128750D03*
X0283750Y0138750D03*
X0283750Y0148750D03*
X0565750Y0148750D03*
X0565750Y0138750D03*
X0565750Y0128750D03*
X0585750Y0128750D03*
X0585750Y0138750D03*
X0585750Y0148750D03*
X0585750Y0340750D03*
X0585750Y0350750D03*
X0585750Y0360750D03*
X0565750Y0360750D03*
X0565750Y0350750D03*
X0565750Y0340750D03*
D20*
X0556656Y0381250D03*
X0544844Y0381250D03*
X0436656Y0385750D03*
X0424844Y0385750D03*
X0424844Y0370750D03*
X0436656Y0370750D03*
X0436656Y0401250D03*
X0424844Y0401250D03*
X0274656Y0381250D03*
X0262844Y0381250D03*
X0154656Y0385750D03*
X0142844Y0385750D03*
X0142844Y0370750D03*
X0154656Y0370750D03*
X0154656Y0401250D03*
X0142844Y0401250D03*
X0142844Y0189250D03*
X0154656Y0189250D03*
X0154656Y0173750D03*
X0142844Y0173750D03*
X0142844Y0158750D03*
X0154656Y0158750D03*
X0262844Y0169250D03*
X0274656Y0169250D03*
X0424844Y0173750D03*
X0436656Y0173750D03*
X0436656Y0158750D03*
X0424844Y0158750D03*
X0424844Y0189250D03*
X0436656Y0189250D03*
X0544844Y0169250D03*
X0556656Y0169250D03*
D21*
X0351750Y0216250D03*
X0351750Y0231250D03*
X0329750Y0231250D03*
X0329750Y0216250D03*
X0069750Y0216250D03*
X0069750Y0231250D03*
X0047750Y0231250D03*
X0047750Y0216250D03*
X0047750Y0428250D03*
X0047750Y0443250D03*
X0069750Y0443250D03*
X0069750Y0428250D03*
X0329750Y0428250D03*
X0329750Y0443250D03*
X0351750Y0443250D03*
X0351750Y0428250D03*
D22*
X0383750Y0282715D03*
X0383750Y0264785D03*
X0383750Y0070715D03*
X0383750Y0052785D03*
X0101750Y0052785D03*
X0101750Y0070715D03*
X0101750Y0264785D03*
X0101750Y0282715D03*
D23*
X0067293Y0358250D03*
X0060207Y0358250D03*
X0342207Y0358250D03*
X0349293Y0358250D03*
X0349293Y0146250D03*
X0342207Y0146250D03*
X0067293Y0146250D03*
X0060207Y0146250D03*
D24*
X0068010Y0081648D02*
X0073522Y0081648D01*
X0068010Y0081648D02*
X0068010Y0088734D01*
X0073522Y0088734D01*
X0073522Y0081648D01*
X0073522Y0084009D02*
X0068010Y0084009D01*
X0068010Y0086370D02*
X0073522Y0086370D01*
X0073522Y0088731D02*
X0068010Y0088731D01*
X0049506Y0081648D02*
X0043994Y0081648D01*
X0043994Y0088734D01*
X0049506Y0088734D01*
X0049506Y0081648D01*
X0049506Y0084009D02*
X0043994Y0084009D01*
X0043994Y0086370D02*
X0049506Y0086370D01*
X0049506Y0088731D02*
X0043994Y0088731D01*
X0043994Y0036766D02*
X0049506Y0036766D01*
X0043994Y0036766D02*
X0043994Y0043852D01*
X0049506Y0043852D01*
X0049506Y0036766D01*
X0049506Y0039127D02*
X0043994Y0039127D01*
X0043994Y0041488D02*
X0049506Y0041488D01*
X0049506Y0043849D02*
X0043994Y0043849D01*
X0068010Y0036766D02*
X0073522Y0036766D01*
X0068010Y0036766D02*
X0068010Y0043852D01*
X0073522Y0043852D01*
X0073522Y0036766D01*
X0073522Y0039127D02*
X0068010Y0039127D01*
X0068010Y0041488D02*
X0073522Y0041488D01*
X0073522Y0043849D02*
X0068010Y0043849D01*
X0325994Y0036766D02*
X0331506Y0036766D01*
X0325994Y0036766D02*
X0325994Y0043852D01*
X0331506Y0043852D01*
X0331506Y0036766D01*
X0331506Y0039127D02*
X0325994Y0039127D01*
X0325994Y0041488D02*
X0331506Y0041488D01*
X0331506Y0043849D02*
X0325994Y0043849D01*
X0350010Y0036766D02*
X0355522Y0036766D01*
X0350010Y0036766D02*
X0350010Y0043852D01*
X0355522Y0043852D01*
X0355522Y0036766D01*
X0355522Y0039127D02*
X0350010Y0039127D01*
X0350010Y0041488D02*
X0355522Y0041488D01*
X0355522Y0043849D02*
X0350010Y0043849D01*
X0350010Y0081648D02*
X0355522Y0081648D01*
X0350010Y0081648D02*
X0350010Y0088734D01*
X0355522Y0088734D01*
X0355522Y0081648D01*
X0355522Y0084009D02*
X0350010Y0084009D01*
X0350010Y0086370D02*
X0355522Y0086370D01*
X0355522Y0088731D02*
X0350010Y0088731D01*
X0331506Y0081648D02*
X0325994Y0081648D01*
X0325994Y0088734D01*
X0331506Y0088734D01*
X0331506Y0081648D01*
X0331506Y0084009D02*
X0325994Y0084009D01*
X0325994Y0086370D02*
X0331506Y0086370D01*
X0331506Y0088731D02*
X0325994Y0088731D01*
X0325994Y0248766D02*
X0331506Y0248766D01*
X0325994Y0248766D02*
X0325994Y0255852D01*
X0331506Y0255852D01*
X0331506Y0248766D01*
X0331506Y0251127D02*
X0325994Y0251127D01*
X0325994Y0253488D02*
X0331506Y0253488D01*
X0331506Y0255849D02*
X0325994Y0255849D01*
X0350010Y0248766D02*
X0355522Y0248766D01*
X0350010Y0248766D02*
X0350010Y0255852D01*
X0355522Y0255852D01*
X0355522Y0248766D01*
X0355522Y0251127D02*
X0350010Y0251127D01*
X0350010Y0253488D02*
X0355522Y0253488D01*
X0355522Y0255849D02*
X0350010Y0255849D01*
X0350010Y0293648D02*
X0355522Y0293648D01*
X0350010Y0293648D02*
X0350010Y0300734D01*
X0355522Y0300734D01*
X0355522Y0293648D01*
X0355522Y0296009D02*
X0350010Y0296009D01*
X0350010Y0298370D02*
X0355522Y0298370D01*
X0355522Y0300731D02*
X0350010Y0300731D01*
X0331506Y0293648D02*
X0325994Y0293648D01*
X0325994Y0300734D01*
X0331506Y0300734D01*
X0331506Y0293648D01*
X0331506Y0296009D02*
X0325994Y0296009D01*
X0325994Y0298370D02*
X0331506Y0298370D01*
X0331506Y0300731D02*
X0325994Y0300731D01*
X0073522Y0293648D02*
X0068010Y0293648D01*
X0068010Y0300734D01*
X0073522Y0300734D01*
X0073522Y0293648D01*
X0073522Y0296009D02*
X0068010Y0296009D01*
X0068010Y0298370D02*
X0073522Y0298370D01*
X0073522Y0300731D02*
X0068010Y0300731D01*
X0049506Y0293648D02*
X0043994Y0293648D01*
X0043994Y0300734D01*
X0049506Y0300734D01*
X0049506Y0293648D01*
X0049506Y0296009D02*
X0043994Y0296009D01*
X0043994Y0298370D02*
X0049506Y0298370D01*
X0049506Y0300731D02*
X0043994Y0300731D01*
X0043994Y0248766D02*
X0049506Y0248766D01*
X0043994Y0248766D02*
X0043994Y0255852D01*
X0049506Y0255852D01*
X0049506Y0248766D01*
X0049506Y0251127D02*
X0043994Y0251127D01*
X0043994Y0253488D02*
X0049506Y0253488D01*
X0049506Y0255849D02*
X0043994Y0255849D01*
X0068010Y0248766D02*
X0073522Y0248766D01*
X0068010Y0248766D02*
X0068010Y0255852D01*
X0073522Y0255852D01*
X0073522Y0248766D01*
X0073522Y0251127D02*
X0068010Y0251127D01*
X0068010Y0253488D02*
X0073522Y0253488D01*
X0073522Y0255849D02*
X0068010Y0255849D01*
D25*
X0043229Y0033638D02*
X0043403Y0033416D01*
X0043623Y0033239D01*
X0043876Y0033115D01*
X0044150Y0033050D01*
X0049150Y0033050D01*
X0049479Y0033132D01*
X0049781Y0033285D01*
X0050042Y0033502D01*
X0050247Y0033771D01*
X0050388Y0034079D01*
X0050457Y0034411D01*
X0050450Y0034750D01*
X0050450Y0040550D01*
X0043050Y0040450D01*
X0043050Y0034450D01*
X0043048Y0034168D01*
X0043109Y0033893D01*
X0043229Y0033638D01*
X0043183Y0033735D02*
X0050220Y0033735D01*
X0050420Y0034234D02*
X0043048Y0034234D01*
X0043050Y0034732D02*
X0050450Y0034732D01*
X0050450Y0035231D02*
X0043050Y0035231D01*
X0043050Y0035729D02*
X0050450Y0035729D01*
X0050450Y0036228D02*
X0043050Y0036228D01*
X0043050Y0036726D02*
X0050450Y0036726D01*
X0050450Y0037225D02*
X0043050Y0037225D01*
X0043050Y0037723D02*
X0050450Y0037723D01*
X0050450Y0038222D02*
X0043050Y0038222D01*
X0043050Y0038720D02*
X0050450Y0038720D01*
X0050450Y0039219D02*
X0043050Y0039219D01*
X0043050Y0039717D02*
X0050450Y0039717D01*
X0050450Y0040216D02*
X0043050Y0040216D01*
X0043627Y0033237D02*
X0049685Y0033237D01*
X0066048Y0034168D02*
X0066109Y0033893D01*
X0066229Y0033638D01*
X0066403Y0033416D01*
X0066623Y0033239D01*
X0066876Y0033115D01*
X0067150Y0033050D01*
X0074150Y0033050D01*
X0074479Y0033132D01*
X0074781Y0033285D01*
X0075042Y0033502D01*
X0075247Y0033771D01*
X0075388Y0034079D01*
X0075457Y0034411D01*
X0075450Y0034750D01*
X0075450Y0043334D01*
X0075412Y0043670D01*
X0075299Y0043989D01*
X0075118Y0044275D01*
X0074878Y0044512D01*
X0074591Y0044690D01*
X0074270Y0044799D01*
X0073934Y0044834D01*
X0067534Y0044766D01*
X0067203Y0044725D01*
X0066889Y0044612D01*
X0066608Y0044433D01*
X0066373Y0044196D01*
X0066197Y0043913D01*
X0066087Y0043597D01*
X0066050Y0043266D01*
X0066050Y0034450D01*
X0066048Y0034168D01*
X0066048Y0034234D02*
X0075420Y0034234D01*
X0075450Y0034732D02*
X0066050Y0034732D01*
X0066050Y0035231D02*
X0075450Y0035231D01*
X0075450Y0035729D02*
X0066050Y0035729D01*
X0066050Y0036228D02*
X0075450Y0036228D01*
X0075450Y0036726D02*
X0066050Y0036726D01*
X0066050Y0037225D02*
X0075450Y0037225D01*
X0075450Y0037723D02*
X0066050Y0037723D01*
X0066050Y0038222D02*
X0075450Y0038222D01*
X0075450Y0038720D02*
X0066050Y0038720D01*
X0066050Y0039219D02*
X0075450Y0039219D01*
X0075450Y0039717D02*
X0066050Y0039717D01*
X0066050Y0040216D02*
X0075450Y0040216D01*
X0075450Y0040714D02*
X0066050Y0040714D01*
X0066050Y0041213D02*
X0075450Y0041213D01*
X0075450Y0041711D02*
X0066050Y0041711D01*
X0066050Y0042210D02*
X0075450Y0042210D01*
X0075450Y0042708D02*
X0066050Y0042708D01*
X0066050Y0043207D02*
X0075450Y0043207D01*
X0075399Y0043705D02*
X0066125Y0043705D01*
X0066381Y0044204D02*
X0075163Y0044204D01*
X0074555Y0044702D02*
X0067139Y0044702D01*
X0066183Y0033735D02*
X0075220Y0033735D01*
X0074685Y0033237D02*
X0066627Y0033237D01*
X0067566Y0080666D02*
X0073966Y0080734D01*
X0074297Y0080775D01*
X0074611Y0080888D01*
X0074892Y0081067D01*
X0075127Y0081304D01*
X0075303Y0081587D01*
X0075413Y0081903D01*
X0075450Y0082234D01*
X0075450Y0091050D01*
X0075452Y0091332D01*
X0075391Y0091607D01*
X0075271Y0091862D01*
X0075097Y0092084D01*
X0074877Y0092261D01*
X0074624Y0092385D01*
X0074350Y0092450D01*
X0067350Y0092450D01*
X0067021Y0092368D01*
X0066719Y0092215D01*
X0066458Y0091998D01*
X0066253Y0091729D01*
X0066112Y0091421D01*
X0066043Y0091089D01*
X0066050Y0090750D01*
X0066050Y0082166D01*
X0066088Y0081830D01*
X0066201Y0081511D01*
X0066382Y0081225D01*
X0066622Y0080988D01*
X0066909Y0080810D01*
X0067230Y0080701D01*
X0067566Y0080666D01*
X0066515Y0081094D02*
X0074919Y0081094D01*
X0075305Y0081592D02*
X0066172Y0081592D01*
X0066059Y0082091D02*
X0075434Y0082091D01*
X0075450Y0082589D02*
X0066050Y0082589D01*
X0066050Y0083088D02*
X0075450Y0083088D01*
X0075450Y0083586D02*
X0066050Y0083586D01*
X0066050Y0084085D02*
X0075450Y0084085D01*
X0075450Y0084583D02*
X0066050Y0084583D01*
X0066050Y0085082D02*
X0075450Y0085082D01*
X0075450Y0085580D02*
X0066050Y0085580D01*
X0066050Y0086079D02*
X0075450Y0086079D01*
X0075450Y0086577D02*
X0066050Y0086577D01*
X0066050Y0087076D02*
X0075450Y0087076D01*
X0075450Y0087574D02*
X0066050Y0087574D01*
X0066050Y0088073D02*
X0075450Y0088073D01*
X0075450Y0088571D02*
X0066050Y0088571D01*
X0066050Y0089070D02*
X0075450Y0089070D01*
X0075450Y0089568D02*
X0066050Y0089568D01*
X0066050Y0090067D02*
X0075450Y0090067D01*
X0075450Y0090565D02*
X0066050Y0090565D01*
X0066044Y0091064D02*
X0075450Y0091064D01*
X0075401Y0091562D02*
X0066177Y0091562D01*
X0066534Y0092061D02*
X0075115Y0092061D01*
X0050452Y0091332D02*
X0050391Y0091607D01*
X0050271Y0091862D01*
X0050097Y0092084D01*
X0049877Y0092261D01*
X0049624Y0092385D01*
X0049350Y0092450D01*
X0044350Y0092450D01*
X0044021Y0092368D01*
X0043719Y0092215D01*
X0043458Y0091998D01*
X0043253Y0091729D01*
X0043112Y0091421D01*
X0043043Y0091089D01*
X0043050Y0090750D01*
X0043050Y0084950D01*
X0050450Y0085050D01*
X0050450Y0091050D01*
X0050452Y0091332D01*
X0050401Y0091562D02*
X0043177Y0091562D01*
X0043044Y0091064D02*
X0050450Y0091064D01*
X0050450Y0090565D02*
X0043050Y0090565D01*
X0043050Y0090067D02*
X0050450Y0090067D01*
X0050450Y0089568D02*
X0043050Y0089568D01*
X0043050Y0089070D02*
X0050450Y0089070D01*
X0050450Y0088571D02*
X0043050Y0088571D01*
X0043050Y0088073D02*
X0050450Y0088073D01*
X0050450Y0087574D02*
X0043050Y0087574D01*
X0043050Y0087076D02*
X0050450Y0087076D01*
X0050450Y0086577D02*
X0043050Y0086577D01*
X0043050Y0086079D02*
X0050450Y0086079D01*
X0050450Y0085580D02*
X0043050Y0085580D01*
X0043050Y0085082D02*
X0050450Y0085082D01*
X0050115Y0092061D02*
X0043534Y0092061D01*
X0044150Y0245050D02*
X0049150Y0245050D01*
X0049479Y0245132D01*
X0049781Y0245285D01*
X0050042Y0245502D01*
X0050247Y0245771D01*
X0050388Y0246079D01*
X0050457Y0246411D01*
X0050450Y0246750D01*
X0050450Y0252550D01*
X0043050Y0252450D01*
X0043050Y0246450D01*
X0043048Y0246168D01*
X0043109Y0245893D01*
X0043229Y0245638D01*
X0043403Y0245416D01*
X0043623Y0245239D01*
X0043876Y0245115D01*
X0044150Y0245050D01*
X0043921Y0245104D02*
X0049366Y0245104D01*
X0050118Y0245602D02*
X0043257Y0245602D01*
X0043063Y0246101D02*
X0050393Y0246101D01*
X0050453Y0246599D02*
X0043050Y0246599D01*
X0043050Y0247098D02*
X0050450Y0247098D01*
X0050450Y0247596D02*
X0043050Y0247596D01*
X0043050Y0248095D02*
X0050450Y0248095D01*
X0050450Y0248593D02*
X0043050Y0248593D01*
X0043050Y0249092D02*
X0050450Y0249092D01*
X0050450Y0249591D02*
X0043050Y0249591D01*
X0043050Y0250089D02*
X0050450Y0250089D01*
X0050450Y0250588D02*
X0043050Y0250588D01*
X0043050Y0251086D02*
X0050450Y0251086D01*
X0050450Y0251585D02*
X0043050Y0251585D01*
X0043050Y0252083D02*
X0050450Y0252083D01*
X0066050Y0252083D02*
X0075450Y0252083D01*
X0075450Y0251585D02*
X0066050Y0251585D01*
X0066050Y0251086D02*
X0075450Y0251086D01*
X0075450Y0250588D02*
X0066050Y0250588D01*
X0066050Y0250089D02*
X0075450Y0250089D01*
X0075450Y0249591D02*
X0066050Y0249591D01*
X0066050Y0249092D02*
X0075450Y0249092D01*
X0075450Y0248593D02*
X0066050Y0248593D01*
X0066050Y0248095D02*
X0075450Y0248095D01*
X0075450Y0247596D02*
X0066050Y0247596D01*
X0066050Y0247098D02*
X0075450Y0247098D01*
X0075450Y0246750D02*
X0075450Y0255334D01*
X0075412Y0255670D01*
X0075299Y0255989D01*
X0075118Y0256275D01*
X0074878Y0256512D01*
X0074591Y0256690D01*
X0074270Y0256799D01*
X0073934Y0256834D01*
X0067534Y0256766D01*
X0067203Y0256725D01*
X0066889Y0256612D01*
X0066608Y0256433D01*
X0066373Y0256196D01*
X0066197Y0255913D01*
X0066087Y0255597D01*
X0066050Y0255266D01*
X0066050Y0246450D01*
X0066048Y0246168D01*
X0066109Y0245893D01*
X0066229Y0245638D01*
X0066403Y0245416D01*
X0066623Y0245239D01*
X0066876Y0245115D01*
X0067150Y0245050D01*
X0074150Y0245050D01*
X0074479Y0245132D01*
X0074781Y0245285D01*
X0075042Y0245502D01*
X0075247Y0245771D01*
X0075388Y0246079D01*
X0075457Y0246411D01*
X0075450Y0246750D01*
X0075453Y0246599D02*
X0066050Y0246599D01*
X0066063Y0246101D02*
X0075393Y0246101D01*
X0075118Y0245602D02*
X0066257Y0245602D01*
X0066921Y0245104D02*
X0074366Y0245104D01*
X0075450Y0252582D02*
X0066050Y0252582D01*
X0066050Y0253080D02*
X0075450Y0253080D01*
X0075450Y0253579D02*
X0066050Y0253579D01*
X0066050Y0254077D02*
X0075450Y0254077D01*
X0075450Y0254576D02*
X0066050Y0254576D01*
X0066050Y0255074D02*
X0075450Y0255074D01*
X0075423Y0255573D02*
X0066084Y0255573D01*
X0066295Y0256071D02*
X0075247Y0256071D01*
X0074785Y0256570D02*
X0066822Y0256570D01*
X0067566Y0292666D02*
X0073966Y0292734D01*
X0074297Y0292775D01*
X0074611Y0292888D01*
X0074892Y0293067D01*
X0075127Y0293304D01*
X0075303Y0293587D01*
X0075413Y0293903D01*
X0075450Y0294234D01*
X0075450Y0303050D01*
X0075452Y0303332D01*
X0075391Y0303607D01*
X0075271Y0303862D01*
X0075097Y0304084D01*
X0074877Y0304261D01*
X0074624Y0304385D01*
X0074350Y0304450D01*
X0067350Y0304450D01*
X0067021Y0304368D01*
X0066719Y0304215D01*
X0066458Y0303998D01*
X0066253Y0303729D01*
X0066112Y0303421D01*
X0066043Y0303089D01*
X0066050Y0302750D01*
X0066050Y0294166D01*
X0066088Y0293830D01*
X0066201Y0293511D01*
X0066382Y0293225D01*
X0066622Y0292988D01*
X0066909Y0292810D01*
X0067230Y0292701D01*
X0067566Y0292666D01*
X0066665Y0292961D02*
X0074726Y0292961D01*
X0075224Y0293460D02*
X0066233Y0293460D01*
X0066074Y0293958D02*
X0075419Y0293958D01*
X0075450Y0294457D02*
X0066050Y0294457D01*
X0066050Y0294955D02*
X0075450Y0294955D01*
X0075450Y0295454D02*
X0066050Y0295454D01*
X0066050Y0295952D02*
X0075450Y0295952D01*
X0075450Y0296451D02*
X0066050Y0296451D01*
X0066050Y0296949D02*
X0075450Y0296949D01*
X0075450Y0297448D02*
X0066050Y0297448D01*
X0066050Y0297946D02*
X0075450Y0297946D01*
X0075450Y0298445D02*
X0066050Y0298445D01*
X0066050Y0298943D02*
X0075450Y0298943D01*
X0075450Y0299442D02*
X0066050Y0299442D01*
X0066050Y0299940D02*
X0075450Y0299940D01*
X0075450Y0300439D02*
X0066050Y0300439D01*
X0066050Y0300937D02*
X0075450Y0300937D01*
X0075450Y0301436D02*
X0066050Y0301436D01*
X0066050Y0301934D02*
X0075450Y0301934D01*
X0075450Y0302433D02*
X0066050Y0302433D01*
X0066046Y0302931D02*
X0075450Y0302931D01*
X0075430Y0303430D02*
X0066116Y0303430D01*
X0066405Y0303928D02*
X0075219Y0303928D01*
X0074449Y0304427D02*
X0067257Y0304427D01*
X0050452Y0303332D02*
X0050391Y0303607D01*
X0050271Y0303862D01*
X0050097Y0304084D01*
X0049877Y0304261D01*
X0049624Y0304385D01*
X0049350Y0304450D01*
X0044350Y0304450D01*
X0044021Y0304368D01*
X0043719Y0304215D01*
X0043458Y0303998D01*
X0043253Y0303729D01*
X0043112Y0303421D01*
X0043043Y0303089D01*
X0043050Y0302750D01*
X0043050Y0296950D01*
X0050450Y0297050D01*
X0050450Y0303050D01*
X0050452Y0303332D01*
X0050430Y0303430D02*
X0043116Y0303430D01*
X0043046Y0302931D02*
X0050450Y0302931D01*
X0050450Y0302433D02*
X0043050Y0302433D01*
X0043050Y0301934D02*
X0050450Y0301934D01*
X0050450Y0301436D02*
X0043050Y0301436D01*
X0043050Y0300937D02*
X0050450Y0300937D01*
X0050450Y0300439D02*
X0043050Y0300439D01*
X0043050Y0299940D02*
X0050450Y0299940D01*
X0050450Y0299442D02*
X0043050Y0299442D01*
X0043050Y0298943D02*
X0050450Y0298943D01*
X0050450Y0298445D02*
X0043050Y0298445D01*
X0043050Y0297946D02*
X0050450Y0297946D01*
X0050450Y0297448D02*
X0043050Y0297448D01*
X0043405Y0303928D02*
X0050219Y0303928D01*
X0049449Y0304427D02*
X0044257Y0304427D01*
X0325043Y0303089D02*
X0325050Y0302750D01*
X0325050Y0296950D01*
X0332450Y0297050D01*
X0332450Y0303050D01*
X0332452Y0303332D01*
X0332391Y0303607D01*
X0332271Y0303862D01*
X0332097Y0304084D01*
X0331877Y0304261D01*
X0331624Y0304385D01*
X0331350Y0304450D01*
X0326350Y0304450D01*
X0326021Y0304368D01*
X0325719Y0304215D01*
X0325458Y0303998D01*
X0325253Y0303729D01*
X0325112Y0303421D01*
X0325043Y0303089D01*
X0325046Y0302931D02*
X0332450Y0302931D01*
X0332450Y0302433D02*
X0325050Y0302433D01*
X0325050Y0301934D02*
X0332450Y0301934D01*
X0332450Y0301436D02*
X0325050Y0301436D01*
X0325050Y0300937D02*
X0332450Y0300937D01*
X0332450Y0300439D02*
X0325050Y0300439D01*
X0325050Y0299940D02*
X0332450Y0299940D01*
X0332450Y0299442D02*
X0325050Y0299442D01*
X0325050Y0298943D02*
X0332450Y0298943D01*
X0332450Y0298445D02*
X0325050Y0298445D01*
X0325050Y0297946D02*
X0332450Y0297946D01*
X0332450Y0297448D02*
X0325050Y0297448D01*
X0325116Y0303430D02*
X0332430Y0303430D01*
X0332219Y0303928D02*
X0325405Y0303928D01*
X0326257Y0304427D02*
X0331449Y0304427D01*
X0348043Y0303089D02*
X0348050Y0302750D01*
X0348050Y0294166D01*
X0348088Y0293830D01*
X0348201Y0293511D01*
X0348382Y0293225D01*
X0348622Y0292988D01*
X0348909Y0292810D01*
X0349230Y0292701D01*
X0349566Y0292666D01*
X0355966Y0292734D01*
X0356297Y0292775D01*
X0356611Y0292888D01*
X0356892Y0293067D01*
X0357127Y0293304D01*
X0357303Y0293587D01*
X0357413Y0293903D01*
X0357450Y0294234D01*
X0357450Y0303050D01*
X0357452Y0303332D01*
X0357391Y0303607D01*
X0357271Y0303862D01*
X0357097Y0304084D01*
X0356877Y0304261D01*
X0356624Y0304385D01*
X0356350Y0304450D01*
X0349350Y0304450D01*
X0349021Y0304368D01*
X0348719Y0304215D01*
X0348458Y0303998D01*
X0348253Y0303729D01*
X0348112Y0303421D01*
X0348043Y0303089D01*
X0348046Y0302931D02*
X0357450Y0302931D01*
X0357450Y0302433D02*
X0348050Y0302433D01*
X0348050Y0301934D02*
X0357450Y0301934D01*
X0357450Y0301436D02*
X0348050Y0301436D01*
X0348050Y0300937D02*
X0357450Y0300937D01*
X0357450Y0300439D02*
X0348050Y0300439D01*
X0348050Y0299940D02*
X0357450Y0299940D01*
X0357450Y0299442D02*
X0348050Y0299442D01*
X0348050Y0298943D02*
X0357450Y0298943D01*
X0357450Y0298445D02*
X0348050Y0298445D01*
X0348050Y0297946D02*
X0357450Y0297946D01*
X0357450Y0297448D02*
X0348050Y0297448D01*
X0348050Y0296949D02*
X0357450Y0296949D01*
X0357450Y0296451D02*
X0348050Y0296451D01*
X0348050Y0295952D02*
X0357450Y0295952D01*
X0357450Y0295454D02*
X0348050Y0295454D01*
X0348050Y0294955D02*
X0357450Y0294955D01*
X0357450Y0294457D02*
X0348050Y0294457D01*
X0348074Y0293958D02*
X0357419Y0293958D01*
X0357224Y0293460D02*
X0348233Y0293460D01*
X0348665Y0292961D02*
X0356726Y0292961D01*
X0357430Y0303430D02*
X0348116Y0303430D01*
X0348405Y0303928D02*
X0357219Y0303928D01*
X0356449Y0304427D02*
X0349257Y0304427D01*
X0349534Y0256766D02*
X0349203Y0256725D01*
X0348889Y0256612D01*
X0348608Y0256433D01*
X0348373Y0256196D01*
X0348197Y0255913D01*
X0348087Y0255597D01*
X0348050Y0255266D01*
X0348050Y0246450D01*
X0348048Y0246168D01*
X0348109Y0245893D01*
X0348229Y0245638D01*
X0348403Y0245416D01*
X0348623Y0245239D01*
X0348876Y0245115D01*
X0349150Y0245050D01*
X0356150Y0245050D01*
X0356479Y0245132D01*
X0356781Y0245285D01*
X0357042Y0245502D01*
X0357247Y0245771D01*
X0357388Y0246079D01*
X0357457Y0246411D01*
X0357450Y0246750D01*
X0357450Y0255334D01*
X0357412Y0255670D01*
X0357299Y0255989D01*
X0357118Y0256275D01*
X0356878Y0256512D01*
X0356591Y0256690D01*
X0356270Y0256799D01*
X0355934Y0256834D01*
X0349534Y0256766D01*
X0348822Y0256570D02*
X0356785Y0256570D01*
X0357247Y0256071D02*
X0348295Y0256071D01*
X0348084Y0255573D02*
X0357423Y0255573D01*
X0357450Y0255074D02*
X0348050Y0255074D01*
X0348050Y0254576D02*
X0357450Y0254576D01*
X0357450Y0254077D02*
X0348050Y0254077D01*
X0348050Y0253579D02*
X0357450Y0253579D01*
X0357450Y0253080D02*
X0348050Y0253080D01*
X0348050Y0252582D02*
X0357450Y0252582D01*
X0357450Y0252083D02*
X0348050Y0252083D01*
X0348050Y0251585D02*
X0357450Y0251585D01*
X0357450Y0251086D02*
X0348050Y0251086D01*
X0348050Y0250588D02*
X0357450Y0250588D01*
X0357450Y0250089D02*
X0348050Y0250089D01*
X0348050Y0249591D02*
X0357450Y0249591D01*
X0357450Y0249092D02*
X0348050Y0249092D01*
X0348050Y0248593D02*
X0357450Y0248593D01*
X0357450Y0248095D02*
X0348050Y0248095D01*
X0348050Y0247596D02*
X0357450Y0247596D01*
X0357450Y0247098D02*
X0348050Y0247098D01*
X0348050Y0246599D02*
X0357453Y0246599D01*
X0357393Y0246101D02*
X0348063Y0246101D01*
X0348257Y0245602D02*
X0357118Y0245602D01*
X0356366Y0245104D02*
X0348921Y0245104D01*
X0332457Y0246411D02*
X0332450Y0246750D01*
X0332450Y0252550D01*
X0325050Y0252450D01*
X0325050Y0246450D01*
X0325048Y0246168D01*
X0325109Y0245893D01*
X0325229Y0245638D01*
X0325403Y0245416D01*
X0325623Y0245239D01*
X0325876Y0245115D01*
X0326150Y0245050D01*
X0331150Y0245050D01*
X0331479Y0245132D01*
X0331781Y0245285D01*
X0332042Y0245502D01*
X0332247Y0245771D01*
X0332388Y0246079D01*
X0332457Y0246411D01*
X0332453Y0246599D02*
X0325050Y0246599D01*
X0325063Y0246101D02*
X0332393Y0246101D01*
X0332118Y0245602D02*
X0325257Y0245602D01*
X0325921Y0245104D02*
X0331366Y0245104D01*
X0332450Y0247098D02*
X0325050Y0247098D01*
X0325050Y0247596D02*
X0332450Y0247596D01*
X0332450Y0248095D02*
X0325050Y0248095D01*
X0325050Y0248593D02*
X0332450Y0248593D01*
X0332450Y0249092D02*
X0325050Y0249092D01*
X0325050Y0249591D02*
X0332450Y0249591D01*
X0332450Y0250089D02*
X0325050Y0250089D01*
X0325050Y0250588D02*
X0332450Y0250588D01*
X0332450Y0251086D02*
X0325050Y0251086D01*
X0325050Y0251585D02*
X0332450Y0251585D01*
X0332450Y0252083D02*
X0325050Y0252083D01*
X0326350Y0092450D02*
X0326021Y0092368D01*
X0325719Y0092215D01*
X0325458Y0091998D01*
X0325253Y0091729D01*
X0325112Y0091421D01*
X0325043Y0091089D01*
X0325050Y0090750D01*
X0325050Y0084950D01*
X0332450Y0085050D01*
X0332450Y0091050D01*
X0332452Y0091332D01*
X0332391Y0091607D01*
X0332271Y0091862D01*
X0332097Y0092084D01*
X0331877Y0092261D01*
X0331624Y0092385D01*
X0331350Y0092450D01*
X0326350Y0092450D01*
X0325534Y0092061D02*
X0332115Y0092061D01*
X0332401Y0091562D02*
X0325177Y0091562D01*
X0325044Y0091064D02*
X0332450Y0091064D01*
X0332450Y0090565D02*
X0325050Y0090565D01*
X0325050Y0090067D02*
X0332450Y0090067D01*
X0332450Y0089568D02*
X0325050Y0089568D01*
X0325050Y0089070D02*
X0332450Y0089070D01*
X0332450Y0088571D02*
X0325050Y0088571D01*
X0325050Y0088073D02*
X0332450Y0088073D01*
X0332450Y0087574D02*
X0325050Y0087574D01*
X0325050Y0087076D02*
X0332450Y0087076D01*
X0332450Y0086577D02*
X0325050Y0086577D01*
X0325050Y0086079D02*
X0332450Y0086079D01*
X0332450Y0085580D02*
X0325050Y0085580D01*
X0325050Y0085082D02*
X0332450Y0085082D01*
X0348050Y0085082D02*
X0357450Y0085082D01*
X0357450Y0085580D02*
X0348050Y0085580D01*
X0348050Y0086079D02*
X0357450Y0086079D01*
X0357450Y0086577D02*
X0348050Y0086577D01*
X0348050Y0087076D02*
X0357450Y0087076D01*
X0357450Y0087574D02*
X0348050Y0087574D01*
X0348050Y0088073D02*
X0357450Y0088073D01*
X0357450Y0088571D02*
X0348050Y0088571D01*
X0348050Y0089070D02*
X0357450Y0089070D01*
X0357450Y0089568D02*
X0348050Y0089568D01*
X0348050Y0090067D02*
X0357450Y0090067D01*
X0357450Y0090565D02*
X0348050Y0090565D01*
X0348050Y0090750D02*
X0348050Y0082166D01*
X0348088Y0081830D01*
X0348201Y0081511D01*
X0348382Y0081225D01*
X0348622Y0080988D01*
X0348909Y0080810D01*
X0349230Y0080701D01*
X0349566Y0080666D01*
X0355966Y0080734D01*
X0356297Y0080775D01*
X0356611Y0080888D01*
X0356892Y0081067D01*
X0357127Y0081304D01*
X0357303Y0081587D01*
X0357413Y0081903D01*
X0357450Y0082234D01*
X0357450Y0091050D01*
X0357452Y0091332D01*
X0357391Y0091607D01*
X0357271Y0091862D01*
X0357097Y0092084D01*
X0356877Y0092261D01*
X0356624Y0092385D01*
X0356350Y0092450D01*
X0349350Y0092450D01*
X0349021Y0092368D01*
X0348719Y0092215D01*
X0348458Y0091998D01*
X0348253Y0091729D01*
X0348112Y0091421D01*
X0348043Y0091089D01*
X0348050Y0090750D01*
X0348044Y0091064D02*
X0357450Y0091064D01*
X0357401Y0091562D02*
X0348177Y0091562D01*
X0348534Y0092061D02*
X0357115Y0092061D01*
X0357450Y0084583D02*
X0348050Y0084583D01*
X0348050Y0084085D02*
X0357450Y0084085D01*
X0357450Y0083586D02*
X0348050Y0083586D01*
X0348050Y0083088D02*
X0357450Y0083088D01*
X0357450Y0082589D02*
X0348050Y0082589D01*
X0348059Y0082091D02*
X0357434Y0082091D01*
X0357305Y0081592D02*
X0348172Y0081592D01*
X0348515Y0081094D02*
X0356919Y0081094D01*
X0355934Y0044834D02*
X0349534Y0044766D01*
X0349203Y0044725D01*
X0348889Y0044612D01*
X0348608Y0044433D01*
X0348373Y0044196D01*
X0348197Y0043913D01*
X0348087Y0043597D01*
X0348050Y0043266D01*
X0348050Y0034450D01*
X0348048Y0034168D01*
X0348109Y0033893D01*
X0348229Y0033638D01*
X0348403Y0033416D01*
X0348623Y0033239D01*
X0348876Y0033115D01*
X0349150Y0033050D01*
X0356150Y0033050D01*
X0356479Y0033132D01*
X0356781Y0033285D01*
X0357042Y0033502D01*
X0357247Y0033771D01*
X0357388Y0034079D01*
X0357457Y0034411D01*
X0357450Y0034750D01*
X0357450Y0043334D01*
X0357412Y0043670D01*
X0357299Y0043989D01*
X0357118Y0044275D01*
X0356878Y0044512D01*
X0356591Y0044690D01*
X0356270Y0044799D01*
X0355934Y0044834D01*
X0356555Y0044702D02*
X0349139Y0044702D01*
X0348381Y0044204D02*
X0357163Y0044204D01*
X0357399Y0043705D02*
X0348125Y0043705D01*
X0348050Y0043207D02*
X0357450Y0043207D01*
X0357450Y0042708D02*
X0348050Y0042708D01*
X0348050Y0042210D02*
X0357450Y0042210D01*
X0357450Y0041711D02*
X0348050Y0041711D01*
X0348050Y0041213D02*
X0357450Y0041213D01*
X0357450Y0040714D02*
X0348050Y0040714D01*
X0348050Y0040216D02*
X0357450Y0040216D01*
X0357450Y0039717D02*
X0348050Y0039717D01*
X0348050Y0039219D02*
X0357450Y0039219D01*
X0357450Y0038720D02*
X0348050Y0038720D01*
X0348050Y0038222D02*
X0357450Y0038222D01*
X0357450Y0037723D02*
X0348050Y0037723D01*
X0348050Y0037225D02*
X0357450Y0037225D01*
X0357450Y0036726D02*
X0348050Y0036726D01*
X0348050Y0036228D02*
X0357450Y0036228D01*
X0357450Y0035729D02*
X0348050Y0035729D01*
X0348050Y0035231D02*
X0357450Y0035231D01*
X0357450Y0034732D02*
X0348050Y0034732D01*
X0348048Y0034234D02*
X0357420Y0034234D01*
X0357220Y0033735D02*
X0348183Y0033735D01*
X0348627Y0033237D02*
X0356685Y0033237D01*
X0332457Y0034411D02*
X0332450Y0034750D01*
X0332450Y0040550D01*
X0325050Y0040450D01*
X0325050Y0034450D01*
X0325048Y0034168D01*
X0325109Y0033893D01*
X0325229Y0033638D01*
X0325403Y0033416D01*
X0325623Y0033239D01*
X0325876Y0033115D01*
X0326150Y0033050D01*
X0331150Y0033050D01*
X0331479Y0033132D01*
X0331781Y0033285D01*
X0332042Y0033502D01*
X0332247Y0033771D01*
X0332388Y0034079D01*
X0332457Y0034411D01*
X0332420Y0034234D02*
X0325048Y0034234D01*
X0325050Y0034732D02*
X0332450Y0034732D01*
X0332450Y0035231D02*
X0325050Y0035231D01*
X0325050Y0035729D02*
X0332450Y0035729D01*
X0332450Y0036228D02*
X0325050Y0036228D01*
X0325050Y0036726D02*
X0332450Y0036726D01*
X0332450Y0037225D02*
X0325050Y0037225D01*
X0325050Y0037723D02*
X0332450Y0037723D01*
X0332450Y0038222D02*
X0325050Y0038222D01*
X0325050Y0038720D02*
X0332450Y0038720D01*
X0332450Y0039219D02*
X0325050Y0039219D01*
X0325050Y0039717D02*
X0332450Y0039717D01*
X0332450Y0040216D02*
X0325050Y0040216D01*
X0325183Y0033735D02*
X0332220Y0033735D01*
X0331685Y0033237D02*
X0325627Y0033237D01*
D26*
X0276392Y0091191D03*
X0276392Y0096309D03*
X0269108Y0093750D03*
X0262392Y0093750D03*
X0255108Y0091191D03*
X0255108Y0096309D03*
X0537108Y0096309D03*
X0537108Y0091191D03*
X0544392Y0093750D03*
X0551108Y0093750D03*
X0558392Y0091191D03*
X0558392Y0096309D03*
X0558392Y0303191D03*
X0558392Y0308309D03*
X0551108Y0305750D03*
X0544392Y0305750D03*
X0537108Y0308309D03*
X0537108Y0303191D03*
X0276392Y0303191D03*
X0276392Y0308309D03*
X0269108Y0305750D03*
X0262392Y0305750D03*
X0255108Y0308309D03*
X0255108Y0303191D03*
D27*
X0220650Y0309726D03*
X0220650Y0312876D03*
X0220650Y0316026D03*
X0220650Y0319175D03*
X0220650Y0322325D03*
X0220650Y0325474D03*
X0220650Y0328624D03*
X0220650Y0331774D03*
X0186850Y0331774D03*
X0186850Y0328624D03*
X0186850Y0325474D03*
X0186850Y0322325D03*
X0186850Y0319175D03*
X0186850Y0316026D03*
X0186850Y0312876D03*
X0186850Y0309726D03*
X0186850Y0119774D03*
X0186850Y0116624D03*
X0186850Y0113474D03*
X0186850Y0110325D03*
X0186850Y0107175D03*
X0186850Y0104026D03*
X0186850Y0100876D03*
X0186850Y0097726D03*
X0220650Y0097726D03*
X0220650Y0100876D03*
X0220650Y0104026D03*
X0220650Y0107175D03*
X0220650Y0110325D03*
X0220650Y0113474D03*
X0220650Y0116624D03*
X0220650Y0119774D03*
X0468850Y0119774D03*
X0468850Y0116624D03*
X0468850Y0113474D03*
X0468850Y0110325D03*
X0468850Y0107175D03*
X0468850Y0104026D03*
X0468850Y0100876D03*
X0468850Y0097726D03*
X0502650Y0097726D03*
X0502650Y0100876D03*
X0502650Y0104026D03*
X0502650Y0107175D03*
X0502650Y0110325D03*
X0502650Y0113474D03*
X0502650Y0116624D03*
X0502650Y0119774D03*
X0502650Y0309726D03*
X0502650Y0312876D03*
X0502650Y0316026D03*
X0502650Y0319175D03*
X0502650Y0322325D03*
X0502650Y0325474D03*
X0502650Y0328624D03*
X0502650Y0331774D03*
X0468850Y0331774D03*
X0468850Y0328624D03*
X0468850Y0325474D03*
X0468850Y0322325D03*
X0468850Y0319175D03*
X0468850Y0316026D03*
X0468850Y0312876D03*
X0468850Y0309726D03*
D28*
X0474726Y0303850D03*
X0477876Y0303850D03*
X0481026Y0303850D03*
X0484175Y0303850D03*
X0487325Y0303850D03*
X0490474Y0303850D03*
X0493624Y0303850D03*
X0496774Y0303850D03*
X0496774Y0337650D03*
X0493624Y0337650D03*
X0490474Y0337650D03*
X0487325Y0337650D03*
X0484175Y0337650D03*
X0481026Y0337650D03*
X0477876Y0337650D03*
X0474726Y0337650D03*
X0214774Y0337650D03*
X0211624Y0337650D03*
X0208474Y0337650D03*
X0205325Y0337650D03*
X0202175Y0337650D03*
X0199026Y0337650D03*
X0195876Y0337650D03*
X0192726Y0337650D03*
X0192726Y0303850D03*
X0195876Y0303850D03*
X0199026Y0303850D03*
X0202175Y0303850D03*
X0205325Y0303850D03*
X0208474Y0303850D03*
X0211624Y0303850D03*
X0214774Y0303850D03*
X0214774Y0125650D03*
X0211624Y0125650D03*
X0208474Y0125650D03*
X0205325Y0125650D03*
X0202175Y0125650D03*
X0199026Y0125650D03*
X0195876Y0125650D03*
X0192726Y0125650D03*
X0192726Y0091850D03*
X0195876Y0091850D03*
X0199026Y0091850D03*
X0202175Y0091850D03*
X0205325Y0091850D03*
X0208474Y0091850D03*
X0211624Y0091850D03*
X0214774Y0091850D03*
X0474726Y0091850D03*
X0477876Y0091850D03*
X0481026Y0091850D03*
X0484175Y0091850D03*
X0487325Y0091850D03*
X0490474Y0091850D03*
X0493624Y0091850D03*
X0496774Y0091850D03*
X0496774Y0125650D03*
X0493624Y0125650D03*
X0490474Y0125650D03*
X0487325Y0125650D03*
X0484175Y0125650D03*
X0481026Y0125650D03*
X0477876Y0125650D03*
X0474726Y0125650D03*
D29*
X0405869Y0102490D03*
X0405869Y0095010D03*
X0395631Y0095010D03*
X0395631Y0098750D03*
X0395631Y0102490D03*
X0123869Y0102490D03*
X0123869Y0095010D03*
X0113631Y0095010D03*
X0113631Y0098750D03*
X0113631Y0102490D03*
X0113631Y0307010D03*
X0113631Y0310750D03*
X0113631Y0314490D03*
X0123869Y0314490D03*
X0123869Y0307010D03*
X0395631Y0307010D03*
X0395631Y0310750D03*
X0395631Y0314490D03*
X0405869Y0314490D03*
X0405869Y0307010D03*
D30*
X0371774Y0378250D03*
X0371774Y0383250D03*
X0371774Y0388250D03*
X0371774Y0393250D03*
X0371774Y0398250D03*
X0371774Y0403250D03*
X0371774Y0408250D03*
X0371774Y0413250D03*
X0349726Y0413250D03*
X0349726Y0408250D03*
X0349726Y0403250D03*
X0349726Y0398250D03*
X0349726Y0393250D03*
X0349726Y0388250D03*
X0349726Y0383250D03*
X0349726Y0378250D03*
X0349726Y0201250D03*
X0349726Y0196250D03*
X0349726Y0191250D03*
X0349726Y0186250D03*
X0349726Y0181250D03*
X0349726Y0176250D03*
X0349726Y0171250D03*
X0349726Y0166250D03*
X0371774Y0166250D03*
X0371774Y0171250D03*
X0371774Y0176250D03*
X0371774Y0181250D03*
X0371774Y0186250D03*
X0371774Y0191250D03*
X0371774Y0196250D03*
X0371774Y0201250D03*
X0089774Y0201250D03*
X0089774Y0196250D03*
X0089774Y0191250D03*
X0089774Y0186250D03*
X0089774Y0181250D03*
X0089774Y0176250D03*
X0089774Y0171250D03*
X0089774Y0166250D03*
X0067726Y0166250D03*
X0067726Y0171250D03*
X0067726Y0176250D03*
X0067726Y0181250D03*
X0067726Y0186250D03*
X0067726Y0191250D03*
X0067726Y0196250D03*
X0067726Y0201250D03*
X0067726Y0378250D03*
X0067726Y0383250D03*
X0067726Y0388250D03*
X0067726Y0393250D03*
X0067726Y0398250D03*
X0067726Y0403250D03*
X0067726Y0408250D03*
X0067726Y0413250D03*
X0089774Y0413250D03*
X0089774Y0408250D03*
X0089774Y0403250D03*
X0089774Y0398250D03*
X0089774Y0393250D03*
X0089774Y0388250D03*
X0089774Y0383250D03*
X0089774Y0378250D03*
D31*
X0095305Y0406124D03*
X0102195Y0406124D03*
X0102195Y0415376D03*
X0095305Y0415376D03*
X0377305Y0415376D03*
X0384195Y0415376D03*
X0384195Y0406124D03*
X0377305Y0406124D03*
X0377305Y0203376D03*
X0384195Y0203376D03*
X0384195Y0194124D03*
X0377305Y0194124D03*
X0102195Y0194124D03*
X0095305Y0194124D03*
X0095305Y0203376D03*
X0102195Y0203376D03*
D32*
X0055073Y0194748D03*
X0055073Y0172604D03*
X0337073Y0172604D03*
X0337073Y0194748D03*
X0337073Y0384604D03*
X0337073Y0406748D03*
X0055073Y0406748D03*
X0055073Y0384604D03*
D33*
X0043428Y0391828D03*
X0043439Y0399603D03*
X0325439Y0399603D03*
X0325428Y0391828D03*
X0325439Y0187603D03*
X0325428Y0179828D03*
X0043428Y0179828D03*
X0043439Y0187603D03*
D34*
X0054474Y0193073D02*
X0055656Y0193073D01*
X0054474Y0193073D02*
X0054474Y0193073D01*
X0055656Y0193073D01*
X0055656Y0193073D01*
X0055616Y0173957D02*
X0054434Y0173957D01*
X0054434Y0173957D01*
X0055616Y0173957D01*
X0055616Y0173957D01*
X0336434Y0173957D02*
X0337616Y0173957D01*
X0336434Y0173957D02*
X0336434Y0173957D01*
X0337616Y0173957D01*
X0337616Y0173957D01*
X0337656Y0193073D02*
X0336474Y0193073D01*
X0336474Y0193073D01*
X0337656Y0193073D01*
X0337656Y0193073D01*
X0337616Y0385957D02*
X0336434Y0385957D01*
X0336434Y0385957D01*
X0337616Y0385957D01*
X0337616Y0385957D01*
X0337656Y0405073D02*
X0336474Y0405073D01*
X0336474Y0405073D01*
X0337656Y0405073D01*
X0337656Y0405073D01*
X0055656Y0405073D02*
X0054474Y0405073D01*
X0054474Y0405073D01*
X0055656Y0405073D01*
X0055656Y0405073D01*
X0055616Y0385957D02*
X0054434Y0385957D01*
X0054434Y0385957D01*
X0055616Y0385957D01*
X0055616Y0385957D01*
D35*
X0045042Y0385114D02*
X0043466Y0385114D01*
X0043466Y0385114D01*
X0045042Y0385114D01*
X0045042Y0385114D01*
X0045035Y0406217D02*
X0043459Y0406217D01*
X0043459Y0406217D01*
X0045035Y0406217D01*
X0045035Y0406217D01*
X0325459Y0406217D02*
X0327035Y0406217D01*
X0325459Y0406217D02*
X0325459Y0406217D01*
X0327035Y0406217D01*
X0327035Y0406217D01*
X0327042Y0385114D02*
X0325466Y0385114D01*
X0325466Y0385114D01*
X0327042Y0385114D01*
X0327042Y0385114D01*
X0327035Y0194217D02*
X0325459Y0194217D01*
X0325459Y0194217D01*
X0327035Y0194217D01*
X0327035Y0194217D01*
X0327042Y0173114D02*
X0325466Y0173114D01*
X0325466Y0173114D01*
X0327042Y0173114D01*
X0327042Y0173114D01*
X0045042Y0173114D02*
X0043466Y0173114D01*
X0043466Y0173114D01*
X0045042Y0173114D01*
X0045042Y0173114D01*
X0045035Y0194217D02*
X0043459Y0194217D01*
X0043459Y0194217D01*
X0045035Y0194217D01*
X0045035Y0194217D01*
D36*
X0048130Y0196920D02*
X0048168Y0196928D01*
X0048201Y0196949D01*
X0048222Y0196982D01*
X0048230Y0197020D01*
X0048230Y0198820D01*
X0051430Y0198820D01*
X0051430Y0191420D01*
X0041330Y0191420D01*
X0041041Y0191453D01*
X0040766Y0191549D01*
X0040519Y0191704D01*
X0040314Y0191909D01*
X0040159Y0192156D01*
X0040063Y0192431D01*
X0040030Y0192720D01*
X0040030Y0195720D01*
X0040060Y0195987D01*
X0040149Y0196241D01*
X0040292Y0196468D01*
X0040482Y0196658D01*
X0040709Y0196801D01*
X0040963Y0196890D01*
X0041230Y0196920D01*
X0048130Y0196920D01*
X0048205Y0196956D02*
X0051430Y0196956D01*
X0051430Y0196761D02*
X0040646Y0196761D01*
X0040389Y0196566D02*
X0051430Y0196566D01*
X0051430Y0196370D02*
X0040230Y0196370D01*
X0040126Y0196175D02*
X0051430Y0196175D01*
X0051430Y0195980D02*
X0040059Y0195980D01*
X0040037Y0195784D02*
X0051430Y0195784D01*
X0051430Y0195589D02*
X0040030Y0195589D01*
X0040030Y0195394D02*
X0051430Y0195394D01*
X0051430Y0195198D02*
X0040030Y0195198D01*
X0040030Y0195003D02*
X0051430Y0195003D01*
X0051430Y0194807D02*
X0040030Y0194807D01*
X0040030Y0194612D02*
X0051430Y0194612D01*
X0051430Y0194417D02*
X0040030Y0194417D01*
X0040030Y0194221D02*
X0051430Y0194221D01*
X0051430Y0194026D02*
X0040030Y0194026D01*
X0040030Y0193831D02*
X0051430Y0193831D01*
X0051430Y0193635D02*
X0040030Y0193635D01*
X0040030Y0193440D02*
X0051430Y0193440D01*
X0051430Y0193245D02*
X0040030Y0193245D01*
X0040030Y0193049D02*
X0051430Y0193049D01*
X0051430Y0192854D02*
X0040030Y0192854D01*
X0040037Y0192658D02*
X0051430Y0192658D01*
X0051430Y0192463D02*
X0040059Y0192463D01*
X0040120Y0192268D02*
X0051430Y0192268D01*
X0051430Y0192072D02*
X0040211Y0192072D01*
X0040346Y0191877D02*
X0051430Y0191877D01*
X0051430Y0191682D02*
X0040554Y0191682D01*
X0040944Y0191486D02*
X0051430Y0191486D01*
X0050773Y0189256D02*
X0057191Y0189256D01*
X0057191Y0188272D01*
X0050773Y0188272D01*
X0050773Y0189256D01*
X0050773Y0189142D02*
X0057191Y0189142D01*
X0057191Y0188947D02*
X0050773Y0188947D01*
X0050773Y0188751D02*
X0057191Y0188751D01*
X0057191Y0188556D02*
X0050773Y0188556D01*
X0050773Y0188361D02*
X0057191Y0188361D01*
X0057191Y0186737D02*
X0050773Y0186737D01*
X0050773Y0185752D01*
X0057191Y0185752D01*
X0057191Y0186737D01*
X0057191Y0186602D02*
X0050773Y0186602D01*
X0050773Y0186407D02*
X0057191Y0186407D01*
X0057191Y0186212D02*
X0050773Y0186212D01*
X0050773Y0186016D02*
X0057191Y0186016D01*
X0057191Y0185821D02*
X0050773Y0185821D01*
X0050813Y0184177D02*
X0057230Y0184177D01*
X0057230Y0183193D01*
X0050813Y0183193D01*
X0050813Y0184177D01*
X0050813Y0184063D02*
X0057230Y0184063D01*
X0057230Y0183867D02*
X0050813Y0183867D01*
X0050813Y0183672D02*
X0057230Y0183672D01*
X0057230Y0183476D02*
X0050813Y0183476D01*
X0050813Y0183281D02*
X0057230Y0183281D01*
X0057230Y0181579D02*
X0050813Y0181579D01*
X0050813Y0180595D01*
X0057230Y0180595D01*
X0057230Y0181579D01*
X0057230Y0181523D02*
X0050813Y0181523D01*
X0050813Y0181327D02*
X0057230Y0181327D01*
X0057230Y0181132D02*
X0050813Y0181132D01*
X0050813Y0180937D02*
X0057230Y0180937D01*
X0057230Y0180741D02*
X0050813Y0180741D01*
X0050773Y0179020D02*
X0057191Y0179020D01*
X0057191Y0178036D01*
X0050773Y0178036D01*
X0050773Y0179020D01*
X0050773Y0178983D02*
X0057191Y0178983D01*
X0057191Y0178788D02*
X0050773Y0178788D01*
X0050773Y0178592D02*
X0057191Y0178592D01*
X0057191Y0178397D02*
X0050773Y0178397D01*
X0050773Y0178202D02*
X0057191Y0178202D01*
X0051430Y0175820D02*
X0041430Y0175820D01*
X0041141Y0175787D01*
X0040866Y0175691D01*
X0040619Y0175536D01*
X0040414Y0175331D01*
X0040259Y0175084D01*
X0040163Y0174809D01*
X0040130Y0174520D01*
X0040130Y0171620D01*
X0040160Y0171353D01*
X0040249Y0171099D01*
X0040392Y0170872D01*
X0040582Y0170682D01*
X0040809Y0170539D01*
X0041063Y0170450D01*
X0041330Y0170420D01*
X0048230Y0170420D01*
X0048268Y0170412D01*
X0048301Y0170391D01*
X0048322Y0170358D01*
X0048330Y0170320D01*
X0048330Y0168420D01*
X0051430Y0168420D01*
X0051430Y0175820D01*
X0051430Y0175662D02*
X0040819Y0175662D01*
X0040550Y0175467D02*
X0051430Y0175467D01*
X0051430Y0175271D02*
X0040376Y0175271D01*
X0040256Y0175076D02*
X0051430Y0175076D01*
X0051430Y0174881D02*
X0040188Y0174881D01*
X0040149Y0174685D02*
X0051430Y0174685D01*
X0051430Y0174490D02*
X0040130Y0174490D01*
X0040130Y0174294D02*
X0051430Y0174294D01*
X0051430Y0174099D02*
X0040130Y0174099D01*
X0040130Y0173904D02*
X0051430Y0173904D01*
X0051430Y0173708D02*
X0040130Y0173708D01*
X0040130Y0173513D02*
X0051430Y0173513D01*
X0051430Y0173318D02*
X0040130Y0173318D01*
X0040130Y0173122D02*
X0051430Y0173122D01*
X0051430Y0172927D02*
X0040130Y0172927D01*
X0040130Y0172732D02*
X0051430Y0172732D01*
X0051430Y0172536D02*
X0040130Y0172536D01*
X0040130Y0172341D02*
X0051430Y0172341D01*
X0051430Y0172145D02*
X0040130Y0172145D01*
X0040130Y0171950D02*
X0051430Y0171950D01*
X0051430Y0171755D02*
X0040130Y0171755D01*
X0040137Y0171559D02*
X0051430Y0171559D01*
X0051430Y0171364D02*
X0040159Y0171364D01*
X0040225Y0171169D02*
X0051430Y0171169D01*
X0051430Y0170973D02*
X0040328Y0170973D01*
X0040486Y0170778D02*
X0051430Y0170778D01*
X0051430Y0170583D02*
X0040740Y0170583D01*
X0048303Y0170387D02*
X0051430Y0170387D01*
X0051430Y0170192D02*
X0048330Y0170192D01*
X0048330Y0169997D02*
X0051430Y0169997D01*
X0051430Y0169801D02*
X0048330Y0169801D01*
X0048330Y0169606D02*
X0051430Y0169606D01*
X0051430Y0169410D02*
X0048330Y0169410D01*
X0048330Y0169215D02*
X0051430Y0169215D01*
X0051430Y0169020D02*
X0048330Y0169020D01*
X0048330Y0168824D02*
X0051430Y0168824D01*
X0051430Y0168629D02*
X0048330Y0168629D01*
X0048330Y0168434D02*
X0051430Y0168434D01*
X0051430Y0197152D02*
X0048230Y0197152D01*
X0048230Y0197347D02*
X0051430Y0197347D01*
X0051430Y0197543D02*
X0048230Y0197543D01*
X0048230Y0197738D02*
X0051430Y0197738D01*
X0051430Y0197933D02*
X0048230Y0197933D01*
X0048230Y0198129D02*
X0051430Y0198129D01*
X0051430Y0198324D02*
X0048230Y0198324D01*
X0048230Y0198519D02*
X0051430Y0198519D01*
X0051430Y0198715D02*
X0048230Y0198715D01*
X0048330Y0380420D02*
X0051430Y0380420D01*
X0051430Y0387820D01*
X0041430Y0387820D01*
X0041141Y0387787D01*
X0040866Y0387691D01*
X0040619Y0387536D01*
X0040414Y0387331D01*
X0040259Y0387084D01*
X0040163Y0386809D01*
X0040130Y0386520D01*
X0040130Y0383620D01*
X0040160Y0383353D01*
X0040249Y0383099D01*
X0040392Y0382872D01*
X0040582Y0382682D01*
X0040809Y0382539D01*
X0041063Y0382450D01*
X0041330Y0382420D01*
X0048230Y0382420D01*
X0048268Y0382412D01*
X0048301Y0382391D01*
X0048322Y0382358D01*
X0048330Y0382320D01*
X0048330Y0380420D01*
X0048330Y0380596D02*
X0051430Y0380596D01*
X0051430Y0380792D02*
X0048330Y0380792D01*
X0048330Y0380987D02*
X0051430Y0380987D01*
X0051430Y0381183D02*
X0048330Y0381183D01*
X0048330Y0381378D02*
X0051430Y0381378D01*
X0051430Y0381573D02*
X0048330Y0381573D01*
X0048330Y0381769D02*
X0051430Y0381769D01*
X0051430Y0381964D02*
X0048330Y0381964D01*
X0048330Y0382159D02*
X0051430Y0382159D01*
X0051430Y0382355D02*
X0048323Y0382355D01*
X0051430Y0382550D02*
X0040791Y0382550D01*
X0040518Y0382745D02*
X0051430Y0382745D01*
X0051430Y0382941D02*
X0040348Y0382941D01*
X0040236Y0383136D02*
X0051430Y0383136D01*
X0051430Y0383332D02*
X0040168Y0383332D01*
X0040140Y0383527D02*
X0051430Y0383527D01*
X0051430Y0383722D02*
X0040130Y0383722D01*
X0040130Y0383918D02*
X0051430Y0383918D01*
X0051430Y0384113D02*
X0040130Y0384113D01*
X0040130Y0384308D02*
X0051430Y0384308D01*
X0051430Y0384504D02*
X0040130Y0384504D01*
X0040130Y0384699D02*
X0051430Y0384699D01*
X0051430Y0384894D02*
X0040130Y0384894D01*
X0040130Y0385090D02*
X0051430Y0385090D01*
X0051430Y0385285D02*
X0040130Y0385285D01*
X0040130Y0385480D02*
X0051430Y0385480D01*
X0051430Y0385676D02*
X0040130Y0385676D01*
X0040130Y0385871D02*
X0051430Y0385871D01*
X0051430Y0386067D02*
X0040130Y0386067D01*
X0040130Y0386262D02*
X0051430Y0386262D01*
X0051430Y0386457D02*
X0040130Y0386457D01*
X0040145Y0386653D02*
X0051430Y0386653D01*
X0051430Y0386848D02*
X0040176Y0386848D01*
X0040245Y0387043D02*
X0051430Y0387043D01*
X0051430Y0387239D02*
X0040356Y0387239D01*
X0040517Y0387434D02*
X0051430Y0387434D01*
X0051430Y0387629D02*
X0040768Y0387629D01*
X0050773Y0390036D02*
X0050773Y0391020D01*
X0057191Y0391020D01*
X0057191Y0390036D01*
X0050773Y0390036D01*
X0050773Y0390169D02*
X0057191Y0390169D01*
X0057191Y0390365D02*
X0050773Y0390365D01*
X0050773Y0390560D02*
X0057191Y0390560D01*
X0057191Y0390755D02*
X0050773Y0390755D01*
X0050773Y0390951D02*
X0057191Y0390951D01*
X0057230Y0392595D02*
X0050813Y0392595D01*
X0050813Y0393579D01*
X0057230Y0393579D01*
X0057230Y0392595D01*
X0057230Y0392709D02*
X0050813Y0392709D01*
X0050813Y0392904D02*
X0057230Y0392904D01*
X0057230Y0393100D02*
X0050813Y0393100D01*
X0050813Y0393295D02*
X0057230Y0393295D01*
X0057230Y0393490D02*
X0050813Y0393490D01*
X0050813Y0395193D02*
X0050813Y0396177D01*
X0057230Y0396177D01*
X0057230Y0395193D01*
X0050813Y0395193D01*
X0050813Y0395249D02*
X0057230Y0395249D01*
X0057230Y0395444D02*
X0050813Y0395444D01*
X0050813Y0395639D02*
X0057230Y0395639D01*
X0057230Y0395835D02*
X0050813Y0395835D01*
X0050813Y0396030D02*
X0057230Y0396030D01*
X0057191Y0397752D02*
X0050773Y0397752D01*
X0050773Y0398737D01*
X0057191Y0398737D01*
X0057191Y0397752D01*
X0057191Y0397788D02*
X0050773Y0397788D01*
X0050773Y0397984D02*
X0057191Y0397984D01*
X0057191Y0398179D02*
X0050773Y0398179D01*
X0050773Y0398374D02*
X0057191Y0398374D01*
X0057191Y0398570D02*
X0050773Y0398570D01*
X0050773Y0400272D02*
X0050773Y0401256D01*
X0057191Y0401256D01*
X0057191Y0400272D01*
X0050773Y0400272D01*
X0050773Y0400328D02*
X0057191Y0400328D01*
X0057191Y0400523D02*
X0050773Y0400523D01*
X0050773Y0400719D02*
X0057191Y0400719D01*
X0057191Y0400914D02*
X0050773Y0400914D01*
X0050773Y0401109D02*
X0057191Y0401109D01*
X0051430Y0403420D02*
X0041330Y0403420D01*
X0041041Y0403453D01*
X0040766Y0403549D01*
X0040519Y0403704D01*
X0040314Y0403909D01*
X0040159Y0404156D01*
X0040063Y0404431D01*
X0040030Y0404720D01*
X0040030Y0407720D01*
X0040060Y0407987D01*
X0040149Y0408241D01*
X0040292Y0408468D01*
X0040482Y0408658D01*
X0040709Y0408801D01*
X0040963Y0408890D01*
X0041230Y0408920D01*
X0048130Y0408920D01*
X0048168Y0408928D01*
X0048201Y0408949D01*
X0048222Y0408982D01*
X0048230Y0409020D01*
X0048230Y0410820D01*
X0051430Y0410820D01*
X0051430Y0403420D01*
X0051430Y0403454D02*
X0041037Y0403454D01*
X0040606Y0403649D02*
X0051430Y0403649D01*
X0051430Y0403844D02*
X0040379Y0403844D01*
X0040232Y0404040D02*
X0051430Y0404040D01*
X0051430Y0404235D02*
X0040131Y0404235D01*
X0040063Y0404431D02*
X0051430Y0404431D01*
X0051430Y0404626D02*
X0040041Y0404626D01*
X0040030Y0404821D02*
X0051430Y0404821D01*
X0051430Y0405017D02*
X0040030Y0405017D01*
X0040030Y0405212D02*
X0051430Y0405212D01*
X0051430Y0405407D02*
X0040030Y0405407D01*
X0040030Y0405603D02*
X0051430Y0405603D01*
X0051430Y0405798D02*
X0040030Y0405798D01*
X0040030Y0405993D02*
X0051430Y0405993D01*
X0051430Y0406189D02*
X0040030Y0406189D01*
X0040030Y0406384D02*
X0051430Y0406384D01*
X0051430Y0406580D02*
X0040030Y0406580D01*
X0040030Y0406775D02*
X0051430Y0406775D01*
X0051430Y0406970D02*
X0040030Y0406970D01*
X0040030Y0407166D02*
X0051430Y0407166D01*
X0051430Y0407361D02*
X0040030Y0407361D01*
X0040030Y0407556D02*
X0051430Y0407556D01*
X0051430Y0407752D02*
X0040034Y0407752D01*
X0040056Y0407947D02*
X0051430Y0407947D01*
X0051430Y0408142D02*
X0040114Y0408142D01*
X0040210Y0408338D02*
X0051430Y0408338D01*
X0051430Y0408533D02*
X0040357Y0408533D01*
X0040594Y0408729D02*
X0051430Y0408729D01*
X0051430Y0408924D02*
X0048150Y0408924D01*
X0048230Y0409119D02*
X0051430Y0409119D01*
X0051430Y0409315D02*
X0048230Y0409315D01*
X0048230Y0409510D02*
X0051430Y0409510D01*
X0051430Y0409705D02*
X0048230Y0409705D01*
X0048230Y0409901D02*
X0051430Y0409901D01*
X0051430Y0410096D02*
X0048230Y0410096D01*
X0048230Y0410291D02*
X0051430Y0410291D01*
X0051430Y0410487D02*
X0048230Y0410487D01*
X0048230Y0410682D02*
X0051430Y0410682D01*
X0322030Y0407720D02*
X0322060Y0407987D01*
X0322149Y0408241D01*
X0322292Y0408468D01*
X0322482Y0408658D01*
X0322709Y0408801D01*
X0322963Y0408890D01*
X0323230Y0408920D01*
X0330130Y0408920D01*
X0330168Y0408928D01*
X0330201Y0408949D01*
X0330222Y0408982D01*
X0330230Y0409020D01*
X0330230Y0410820D01*
X0333430Y0410820D01*
X0333430Y0403420D01*
X0323330Y0403420D01*
X0323041Y0403453D01*
X0322766Y0403549D01*
X0322519Y0403704D01*
X0322314Y0403909D01*
X0322159Y0404156D01*
X0322063Y0404431D01*
X0322030Y0404720D01*
X0322030Y0407720D01*
X0322034Y0407752D02*
X0333430Y0407752D01*
X0333430Y0407947D02*
X0322056Y0407947D01*
X0322114Y0408142D02*
X0333430Y0408142D01*
X0333430Y0408338D02*
X0322210Y0408338D01*
X0322357Y0408533D02*
X0333430Y0408533D01*
X0333430Y0408729D02*
X0322594Y0408729D01*
X0322030Y0407556D02*
X0333430Y0407556D01*
X0333430Y0407361D02*
X0322030Y0407361D01*
X0322030Y0407166D02*
X0333430Y0407166D01*
X0333430Y0406970D02*
X0322030Y0406970D01*
X0322030Y0406775D02*
X0333430Y0406775D01*
X0333430Y0406580D02*
X0322030Y0406580D01*
X0322030Y0406384D02*
X0333430Y0406384D01*
X0333430Y0406189D02*
X0322030Y0406189D01*
X0322030Y0405993D02*
X0333430Y0405993D01*
X0333430Y0405798D02*
X0322030Y0405798D01*
X0322030Y0405603D02*
X0333430Y0405603D01*
X0333430Y0405407D02*
X0322030Y0405407D01*
X0322030Y0405212D02*
X0333430Y0405212D01*
X0333430Y0405017D02*
X0322030Y0405017D01*
X0322030Y0404821D02*
X0333430Y0404821D01*
X0333430Y0404626D02*
X0322041Y0404626D01*
X0322063Y0404431D02*
X0333430Y0404431D01*
X0333430Y0404235D02*
X0322131Y0404235D01*
X0322232Y0404040D02*
X0333430Y0404040D01*
X0333430Y0403844D02*
X0322379Y0403844D01*
X0322606Y0403649D02*
X0333430Y0403649D01*
X0333430Y0403454D02*
X0323037Y0403454D01*
X0330150Y0408924D02*
X0333430Y0408924D01*
X0333430Y0409119D02*
X0330230Y0409119D01*
X0330230Y0409315D02*
X0333430Y0409315D01*
X0333430Y0409510D02*
X0330230Y0409510D01*
X0330230Y0409705D02*
X0333430Y0409705D01*
X0333430Y0409901D02*
X0330230Y0409901D01*
X0330230Y0410096D02*
X0333430Y0410096D01*
X0333430Y0410291D02*
X0330230Y0410291D01*
X0330230Y0410487D02*
X0333430Y0410487D01*
X0333430Y0410682D02*
X0330230Y0410682D01*
X0332773Y0401256D02*
X0339191Y0401256D01*
X0339191Y0400272D01*
X0332773Y0400272D01*
X0332773Y0401256D01*
X0332773Y0401109D02*
X0339191Y0401109D01*
X0339191Y0400914D02*
X0332773Y0400914D01*
X0332773Y0400719D02*
X0339191Y0400719D01*
X0339191Y0400523D02*
X0332773Y0400523D01*
X0332773Y0400328D02*
X0339191Y0400328D01*
X0339191Y0398737D02*
X0332773Y0398737D01*
X0332773Y0397752D01*
X0339191Y0397752D01*
X0339191Y0398737D01*
X0339191Y0398570D02*
X0332773Y0398570D01*
X0332773Y0398374D02*
X0339191Y0398374D01*
X0339191Y0398179D02*
X0332773Y0398179D01*
X0332773Y0397984D02*
X0339191Y0397984D01*
X0339191Y0397788D02*
X0332773Y0397788D01*
X0332813Y0396177D02*
X0339230Y0396177D01*
X0339230Y0395193D01*
X0332813Y0395193D01*
X0332813Y0396177D01*
X0332813Y0396030D02*
X0339230Y0396030D01*
X0339230Y0395835D02*
X0332813Y0395835D01*
X0332813Y0395639D02*
X0339230Y0395639D01*
X0339230Y0395444D02*
X0332813Y0395444D01*
X0332813Y0395249D02*
X0339230Y0395249D01*
X0339230Y0393579D02*
X0332813Y0393579D01*
X0332813Y0392595D01*
X0339230Y0392595D01*
X0339230Y0393579D01*
X0339230Y0393490D02*
X0332813Y0393490D01*
X0332813Y0393295D02*
X0339230Y0393295D01*
X0339230Y0393100D02*
X0332813Y0393100D01*
X0332813Y0392904D02*
X0339230Y0392904D01*
X0339230Y0392709D02*
X0332813Y0392709D01*
X0332773Y0391020D02*
X0339191Y0391020D01*
X0339191Y0390036D01*
X0332773Y0390036D01*
X0332773Y0391020D01*
X0332773Y0390951D02*
X0339191Y0390951D01*
X0339191Y0390755D02*
X0332773Y0390755D01*
X0332773Y0390560D02*
X0339191Y0390560D01*
X0339191Y0390365D02*
X0332773Y0390365D01*
X0332773Y0390169D02*
X0339191Y0390169D01*
X0333430Y0387820D02*
X0323430Y0387820D01*
X0323141Y0387787D01*
X0322866Y0387691D01*
X0322619Y0387536D01*
X0322414Y0387331D01*
X0322259Y0387084D01*
X0322163Y0386809D01*
X0322130Y0386520D01*
X0322130Y0383620D01*
X0322160Y0383353D01*
X0322249Y0383099D01*
X0322392Y0382872D01*
X0322582Y0382682D01*
X0322809Y0382539D01*
X0323063Y0382450D01*
X0323330Y0382420D01*
X0330230Y0382420D01*
X0330268Y0382412D01*
X0330301Y0382391D01*
X0330322Y0382358D01*
X0330330Y0382320D01*
X0330330Y0380420D01*
X0333430Y0380420D01*
X0333430Y0387820D01*
X0333430Y0387629D02*
X0322768Y0387629D01*
X0322517Y0387434D02*
X0333430Y0387434D01*
X0333430Y0387239D02*
X0322356Y0387239D01*
X0322245Y0387043D02*
X0333430Y0387043D01*
X0333430Y0386848D02*
X0322176Y0386848D01*
X0322145Y0386653D02*
X0333430Y0386653D01*
X0333430Y0386457D02*
X0322130Y0386457D01*
X0322130Y0386262D02*
X0333430Y0386262D01*
X0333430Y0386067D02*
X0322130Y0386067D01*
X0322130Y0385871D02*
X0333430Y0385871D01*
X0333430Y0385676D02*
X0322130Y0385676D01*
X0322130Y0385480D02*
X0333430Y0385480D01*
X0333430Y0385285D02*
X0322130Y0385285D01*
X0322130Y0385090D02*
X0333430Y0385090D01*
X0333430Y0384894D02*
X0322130Y0384894D01*
X0322130Y0384699D02*
X0333430Y0384699D01*
X0333430Y0384504D02*
X0322130Y0384504D01*
X0322130Y0384308D02*
X0333430Y0384308D01*
X0333430Y0384113D02*
X0322130Y0384113D01*
X0322130Y0383918D02*
X0333430Y0383918D01*
X0333430Y0383722D02*
X0322130Y0383722D01*
X0322140Y0383527D02*
X0333430Y0383527D01*
X0333430Y0383332D02*
X0322168Y0383332D01*
X0322236Y0383136D02*
X0333430Y0383136D01*
X0333430Y0382941D02*
X0322348Y0382941D01*
X0322518Y0382745D02*
X0333430Y0382745D01*
X0333430Y0382550D02*
X0322791Y0382550D01*
X0330323Y0382355D02*
X0333430Y0382355D01*
X0333430Y0382159D02*
X0330330Y0382159D01*
X0330330Y0381964D02*
X0333430Y0381964D01*
X0333430Y0381769D02*
X0330330Y0381769D01*
X0330330Y0381573D02*
X0333430Y0381573D01*
X0333430Y0381378D02*
X0330330Y0381378D01*
X0330330Y0381183D02*
X0333430Y0381183D01*
X0333430Y0380987D02*
X0330330Y0380987D01*
X0330330Y0380792D02*
X0333430Y0380792D01*
X0333430Y0380596D02*
X0330330Y0380596D01*
X0330230Y0198820D02*
X0333430Y0198820D01*
X0333430Y0191420D01*
X0323330Y0191420D01*
X0323041Y0191453D01*
X0322766Y0191549D01*
X0322519Y0191704D01*
X0322314Y0191909D01*
X0322159Y0192156D01*
X0322063Y0192431D01*
X0322030Y0192720D01*
X0322030Y0195720D01*
X0322060Y0195987D01*
X0322149Y0196241D01*
X0322292Y0196468D01*
X0322482Y0196658D01*
X0322709Y0196801D01*
X0322963Y0196890D01*
X0323230Y0196920D01*
X0330130Y0196920D01*
X0330168Y0196928D01*
X0330201Y0196949D01*
X0330222Y0196982D01*
X0330230Y0197020D01*
X0330230Y0198820D01*
X0330230Y0198715D02*
X0333430Y0198715D01*
X0333430Y0198519D02*
X0330230Y0198519D01*
X0330230Y0198324D02*
X0333430Y0198324D01*
X0333430Y0198129D02*
X0330230Y0198129D01*
X0330230Y0197933D02*
X0333430Y0197933D01*
X0333430Y0197738D02*
X0330230Y0197738D01*
X0330230Y0197543D02*
X0333430Y0197543D01*
X0333430Y0197347D02*
X0330230Y0197347D01*
X0330230Y0197152D02*
X0333430Y0197152D01*
X0333430Y0196956D02*
X0330205Y0196956D01*
X0333430Y0196761D02*
X0322646Y0196761D01*
X0322389Y0196566D02*
X0333430Y0196566D01*
X0333430Y0196370D02*
X0322230Y0196370D01*
X0322126Y0196175D02*
X0333430Y0196175D01*
X0333430Y0195980D02*
X0322059Y0195980D01*
X0322037Y0195784D02*
X0333430Y0195784D01*
X0333430Y0195589D02*
X0322030Y0195589D01*
X0322030Y0195394D02*
X0333430Y0195394D01*
X0333430Y0195198D02*
X0322030Y0195198D01*
X0322030Y0195003D02*
X0333430Y0195003D01*
X0333430Y0194807D02*
X0322030Y0194807D01*
X0322030Y0194612D02*
X0333430Y0194612D01*
X0333430Y0194417D02*
X0322030Y0194417D01*
X0322030Y0194221D02*
X0333430Y0194221D01*
X0333430Y0194026D02*
X0322030Y0194026D01*
X0322030Y0193831D02*
X0333430Y0193831D01*
X0333430Y0193635D02*
X0322030Y0193635D01*
X0322030Y0193440D02*
X0333430Y0193440D01*
X0333430Y0193245D02*
X0322030Y0193245D01*
X0322030Y0193049D02*
X0333430Y0193049D01*
X0333430Y0192854D02*
X0322030Y0192854D01*
X0322037Y0192658D02*
X0333430Y0192658D01*
X0333430Y0192463D02*
X0322059Y0192463D01*
X0322120Y0192268D02*
X0333430Y0192268D01*
X0333430Y0192072D02*
X0322211Y0192072D01*
X0322346Y0191877D02*
X0333430Y0191877D01*
X0333430Y0191682D02*
X0322554Y0191682D01*
X0322944Y0191486D02*
X0333430Y0191486D01*
X0332773Y0189256D02*
X0339191Y0189256D01*
X0339191Y0188272D01*
X0332773Y0188272D01*
X0332773Y0189256D01*
X0332773Y0189142D02*
X0339191Y0189142D01*
X0339191Y0188947D02*
X0332773Y0188947D01*
X0332773Y0188751D02*
X0339191Y0188751D01*
X0339191Y0188556D02*
X0332773Y0188556D01*
X0332773Y0188361D02*
X0339191Y0188361D01*
X0339191Y0186737D02*
X0332773Y0186737D01*
X0332773Y0185752D01*
X0339191Y0185752D01*
X0339191Y0186737D01*
X0339191Y0186602D02*
X0332773Y0186602D01*
X0332773Y0186407D02*
X0339191Y0186407D01*
X0339191Y0186212D02*
X0332773Y0186212D01*
X0332773Y0186016D02*
X0339191Y0186016D01*
X0339191Y0185821D02*
X0332773Y0185821D01*
X0332813Y0184177D02*
X0339230Y0184177D01*
X0339230Y0183193D01*
X0332813Y0183193D01*
X0332813Y0184177D01*
X0332813Y0184063D02*
X0339230Y0184063D01*
X0339230Y0183867D02*
X0332813Y0183867D01*
X0332813Y0183672D02*
X0339230Y0183672D01*
X0339230Y0183476D02*
X0332813Y0183476D01*
X0332813Y0183281D02*
X0339230Y0183281D01*
X0339230Y0181579D02*
X0332813Y0181579D01*
X0332813Y0180595D01*
X0339230Y0180595D01*
X0339230Y0181579D01*
X0339230Y0181523D02*
X0332813Y0181523D01*
X0332813Y0181327D02*
X0339230Y0181327D01*
X0339230Y0181132D02*
X0332813Y0181132D01*
X0332813Y0180937D02*
X0339230Y0180937D01*
X0339230Y0180741D02*
X0332813Y0180741D01*
X0332773Y0179020D02*
X0339191Y0179020D01*
X0339191Y0178036D01*
X0332773Y0178036D01*
X0332773Y0179020D01*
X0332773Y0178983D02*
X0339191Y0178983D01*
X0339191Y0178788D02*
X0332773Y0178788D01*
X0332773Y0178592D02*
X0339191Y0178592D01*
X0339191Y0178397D02*
X0332773Y0178397D01*
X0332773Y0178202D02*
X0339191Y0178202D01*
X0333430Y0175820D02*
X0323430Y0175820D01*
X0323141Y0175787D01*
X0322866Y0175691D01*
X0322619Y0175536D01*
X0322414Y0175331D01*
X0322259Y0175084D01*
X0322163Y0174809D01*
X0322130Y0174520D01*
X0322130Y0171620D01*
X0322160Y0171353D01*
X0322249Y0171099D01*
X0322392Y0170872D01*
X0322582Y0170682D01*
X0322809Y0170539D01*
X0323063Y0170450D01*
X0323330Y0170420D01*
X0330230Y0170420D01*
X0330268Y0170412D01*
X0330301Y0170391D01*
X0330322Y0170358D01*
X0330330Y0170320D01*
X0330330Y0168420D01*
X0333430Y0168420D01*
X0333430Y0175820D01*
X0333430Y0175662D02*
X0322819Y0175662D01*
X0322550Y0175467D02*
X0333430Y0175467D01*
X0333430Y0175271D02*
X0322376Y0175271D01*
X0322256Y0175076D02*
X0333430Y0175076D01*
X0333430Y0174881D02*
X0322188Y0174881D01*
X0322149Y0174685D02*
X0333430Y0174685D01*
X0333430Y0174490D02*
X0322130Y0174490D01*
X0322130Y0174294D02*
X0333430Y0174294D01*
X0333430Y0174099D02*
X0322130Y0174099D01*
X0322130Y0173904D02*
X0333430Y0173904D01*
X0333430Y0173708D02*
X0322130Y0173708D01*
X0322130Y0173513D02*
X0333430Y0173513D01*
X0333430Y0173318D02*
X0322130Y0173318D01*
X0322130Y0173122D02*
X0333430Y0173122D01*
X0333430Y0172927D02*
X0322130Y0172927D01*
X0322130Y0172732D02*
X0333430Y0172732D01*
X0333430Y0172536D02*
X0322130Y0172536D01*
X0322130Y0172341D02*
X0333430Y0172341D01*
X0333430Y0172145D02*
X0322130Y0172145D01*
X0322130Y0171950D02*
X0333430Y0171950D01*
X0333430Y0171755D02*
X0322130Y0171755D01*
X0322137Y0171559D02*
X0333430Y0171559D01*
X0333430Y0171364D02*
X0322159Y0171364D01*
X0322225Y0171169D02*
X0333430Y0171169D01*
X0333430Y0170973D02*
X0322328Y0170973D01*
X0322486Y0170778D02*
X0333430Y0170778D01*
X0333430Y0170583D02*
X0322740Y0170583D01*
X0330303Y0170387D02*
X0333430Y0170387D01*
X0333430Y0170192D02*
X0330330Y0170192D01*
X0330330Y0169997D02*
X0333430Y0169997D01*
X0333430Y0169801D02*
X0330330Y0169801D01*
X0330330Y0169606D02*
X0333430Y0169606D01*
X0333430Y0169410D02*
X0330330Y0169410D01*
X0330330Y0169215D02*
X0333430Y0169215D01*
X0333430Y0169020D02*
X0330330Y0169020D01*
X0330330Y0168824D02*
X0333430Y0168824D01*
X0333430Y0168629D02*
X0330330Y0168629D01*
X0330330Y0168434D02*
X0333430Y0168434D01*
D37*
X0303219Y0104774D03*
X0303219Y0082726D03*
X0585219Y0082726D03*
X0585219Y0104774D03*
X0585219Y0294726D03*
X0585219Y0316774D03*
X0303219Y0316774D03*
X0303219Y0294726D03*
D38*
X0288750Y0299844D03*
X0288750Y0303781D03*
X0288750Y0307719D03*
X0288750Y0311656D03*
X0570750Y0311656D03*
X0570750Y0307719D03*
X0570750Y0303781D03*
X0570750Y0299844D03*
X0570750Y0099656D03*
X0570750Y0095719D03*
X0570750Y0091781D03*
X0570750Y0087844D03*
X0288750Y0087844D03*
X0288750Y0091781D03*
X0288750Y0095719D03*
X0288750Y0099656D03*
M02*
